<?xml version="1.0" encoding="utf-8" standalone="no"?>
<!DOCTYPE svg PUBLIC "-//W3C//DTD SVG 1.1//EN"
  "http://www.w3.org/Graphics/SVG/1.1/DTD/svg11.dtd">
<svg xmlns:xlink="http://www.w3.org/1999/xlink" width="360pt" height="216pt" viewBox="0 0 360 216" xmlns="http://www.w3.org/2000/svg" version="1.1">
 <metadata>
  <rdf:RDF xmlns:dc="http://purl.org/dc/elements/1.1/" xmlns:cc="http://creativecommons.org/ns#" xmlns:rdf="http://www.w3.org/1999/02/22-rdf-syntax-ns#">
   <cc:Work>
    <dc:type rdf:resource="http://purl.org/dc/dcmitype/StillImage"/>
    <dc:date>2025-12-29T20:07:47.742459</dc:date>
    <dc:format>image/svg+xml</dc:format>
    <dc:creator>
     <cc:Agent>
      <dc:title>Matplotlib v3.10.5, https://matplotlib.org/</dc:title>
     </cc:Agent>
    </dc:creator>
   </cc:Work>
  </rdf:RDF>
 </metadata>
 <defs>
  <style type="text/css">*{stroke-linejoin: round; stroke-linecap: butt}</style>
 </defs>
 <g id="figure_1">
  <g id="patch_1">
   <path d="M 0 216 
L 360 216 
L 360 0 
L 0 0 
z
" style="fill: #ffffff"/>
  </g>
  <g id="axes_1">
   <g id="patch_2">
    <path d="M 43.09 173.93875 
L 349.2 173.93875 
L 349.2 26.88 
L 43.09 26.88 
z
" style="fill: #ffffff"/>
   </g>
   <g id="patch_3">
    <path d="M 57.004091 173.93875 
L 61.642121 173.93875 
L 61.642121 158.253529 
L 57.004091 158.253529 
z
" clip-path="url(#pd19fb44725)" style="fill: #1f77b4"/>
   </g>
   <g id="patch_4">
    <path d="M 61.642121 173.93875 
L 66.280152 173.93875 
L 66.280152 125.706695 
L 61.642121 125.706695 
z
" clip-path="url(#pd19fb44725)" style="fill: #1f77b4"/>
   </g>
   <g id="patch_5">
    <path d="M 66.280152 173.93875 
L 70.918182 173.93875 
L 70.918182 73.030495 
L 66.280152 73.030495 
z
" clip-path="url(#pd19fb44725)" style="fill: #1f77b4"/>
   </g>
   <g id="patch_6">
    <path d="M 70.918182 173.93875 
L 75.556212 173.93875 
L 75.556212 33.882798 
L 70.918182 33.882798 
z
" clip-path="url(#pd19fb44725)" style="fill: #1f77b4"/>
   </g>
   <g id="patch_7">
    <path d="M 75.556212 173.93875 
L 80.194242 173.93875 
L 80.194242 52.901128 
L 75.556212 52.901128 
z
" clip-path="url(#pd19fb44725)" style="fill: #1f77b4"/>
   </g>
   <g id="patch_8">
    <path d="M 80.194242 173.93875 
L 84.832273 173.93875 
L 84.832273 85.970802 
L 80.194242 85.970802 
z
" clip-path="url(#pd19fb44725)" style="fill: #1f77b4"/>
   </g>
   <g id="patch_9">
    <path d="M 84.832273 173.93875 
L 89.470303 173.93875 
L 89.470303 104.727712 
L 84.832273 104.727712 
z
" clip-path="url(#pd19fb44725)" style="fill: #1f77b4"/>
   </g>
   <g id="patch_10">
    <path d="M 89.470303 173.93875 
L 94.108333 173.93875 
L 94.108333 123.419267 
L 89.470303 123.419267 
z
" clip-path="url(#pd19fb44725)" style="fill: #1f77b4"/>
   </g>
   <g id="patch_11">
    <path d="M 94.108333 173.93875 
L 98.746364 173.93875 
L 98.746364 132.503625 
L 94.108333 132.503625 
z
" clip-path="url(#pd19fb44725)" style="fill: #1f77b4"/>
   </g>
   <g id="patch_12">
    <path d="M 98.746364 173.93875 
L 103.384394 173.93875 
L 103.384394 140.803721 
L 98.746364 140.803721 
z
" clip-path="url(#pd19fb44725)" style="fill: #1f77b4"/>
   </g>
   <g id="patch_13">
    <path d="M 103.384394 173.93875 
L 108.022424 173.93875 
L 108.022424 150.214853 
L 103.384394 150.214853 
z
" clip-path="url(#pd19fb44725)" style="fill: #1f77b4"/>
   </g>
   <g id="patch_14">
    <path d="M 108.022424 173.93875 
L 112.660455 173.93875 
L 112.660455 154.201514 
L 108.022424 154.201514 
z
" clip-path="url(#pd19fb44725)" style="fill: #1f77b4"/>
   </g>
   <g id="patch_15">
    <path d="M 112.660455 173.93875 
L 117.298485 173.93875 
L 117.298485 157.273203 
L 112.660455 157.273203 
z
" clip-path="url(#pd19fb44725)" style="fill: #1f77b4"/>
   </g>
   <g id="patch_16">
    <path d="M 117.298485 173.93875 
L 121.936515 173.93875 
L 121.936515 162.828385 
L 117.298485 162.828385 
z
" clip-path="url(#pd19fb44725)" style="fill: #1f77b4"/>
   </g>
   <g id="patch_17">
    <path d="M 121.936515 173.93875 
L 126.574545 173.93875 
L 126.574545 165.507944 
L 121.936515 165.507944 
z
" clip-path="url(#pd19fb44725)" style="fill: #1f77b4"/>
   </g>
   <g id="patch_18">
    <path d="M 126.574545 173.93875 
L 131.212576 173.93875 
L 131.212576 168.448923 
L 126.574545 168.448923 
z
" clip-path="url(#pd19fb44725)" style="fill: #1f77b4"/>
   </g>
   <g id="patch_19">
    <path d="M 131.212576 173.93875 
L 135.850606 173.93875 
L 135.850606 170.409575 
L 131.212576 170.409575 
z
" clip-path="url(#pd19fb44725)" style="fill: #1f77b4"/>
   </g>
   <g id="patch_20">
    <path d="M 135.850606 173.93875 
L 140.488636 173.93875 
L 140.488636 170.997771 
L 135.850606 170.997771 
z
" clip-path="url(#pd19fb44725)" style="fill: #1f77b4"/>
   </g>
   <g id="patch_21">
    <path d="M 140.488636 173.93875 
L 145.126667 173.93875 
L 145.126667 171.455257 
L 140.488636 171.455257 
z
" clip-path="url(#pd19fb44725)" style="fill: #1f77b4"/>
   </g>
   <g id="patch_22">
    <path d="M 145.126667 173.93875 
L 149.764697 173.93875 
L 149.764697 171.782032 
L 145.126667 171.782032 
z
" clip-path="url(#pd19fb44725)" style="fill: #1f77b4"/>
   </g>
   <g id="patch_23">
    <path d="M 149.764697 173.93875 
L 154.402727 173.93875 
L 154.402727 171.912742 
L 149.764697 171.912742 
z
" clip-path="url(#pd19fb44725)" style="fill: #1f77b4"/>
   </g>
   <g id="patch_24">
    <path d="M 154.402727 173.93875 
L 159.040758 173.93875 
L 159.040758 173.285199 
L 154.402727 173.285199 
z
" clip-path="url(#pd19fb44725)" style="fill: #1f77b4"/>
   </g>
   <g id="patch_25">
    <path d="M 159.040758 173.93875 
L 163.678788 173.93875 
L 163.678788 173.350554 
L 159.040758 173.350554 
z
" clip-path="url(#pd19fb44725)" style="fill: #1f77b4"/>
   </g>
   <g id="patch_26">
    <path d="M 163.678788 173.93875 
L 168.316818 173.93875 
L 168.316818 173.154489 
L 163.678788 173.154489 
z
" clip-path="url(#pd19fb44725)" style="fill: #1f77b4"/>
   </g>
   <g id="patch_27">
    <path d="M 168.316818 173.93875 
L 172.954848 173.93875 
L 172.954848 173.415909 
L 168.316818 173.415909 
z
" clip-path="url(#pd19fb44725)" style="fill: #1f77b4"/>
   </g>
   <g id="patch_28">
    <path d="M 172.954848 173.93875 
L 177.592879 173.93875 
L 177.592879 173.089134 
L 172.954848 173.089134 
z
" clip-path="url(#pd19fb44725)" style="fill: #1f77b4"/>
   </g>
   <g id="patch_29">
    <path d="M 177.592879 173.93875 
L 182.230909 173.93875 
L 182.230909 173.350554 
L 177.592879 173.350554 
z
" clip-path="url(#pd19fb44725)" style="fill: #1f77b4"/>
   </g>
   <g id="patch_30">
    <path d="M 182.230909 173.93875 
L 186.868939 173.93875 
L 186.868939 173.742685 
L 182.230909 173.742685 
z
" clip-path="url(#pd19fb44725)" style="fill: #1f77b4"/>
   </g>
   <g id="patch_31">
    <path d="M 186.868939 173.93875 
L 191.50697 173.93875 
L 191.50697 173.546619 
L 186.868939 173.546619 
z
" clip-path="url(#pd19fb44725)" style="fill: #1f77b4"/>
   </g>
   <g id="patch_32">
    <path d="M 191.50697 173.93875 
L 196.145 173.93875 
L 196.145 173.611975 
L 191.50697 173.611975 
z
" clip-path="url(#pd19fb44725)" style="fill: #1f77b4"/>
   </g>
   <g id="patch_33">
    <path d="M 196.145 173.93875 
L 200.78303 173.93875 
L 200.78303 173.742685 
L 196.145 173.742685 
z
" clip-path="url(#pd19fb44725)" style="fill: #1f77b4"/>
   </g>
   <g id="patch_34">
    <path d="M 200.78303 173.93875 
L 205.421061 173.93875 
L 205.421061 173.873395 
L 200.78303 173.873395 
z
" clip-path="url(#pd19fb44725)" style="fill: #1f77b4"/>
   </g>
   <g id="patch_35">
    <path d="M 205.421061 173.93875 
L 210.059091 173.93875 
L 210.059091 173.546619 
L 205.421061 173.546619 
z
" clip-path="url(#pd19fb44725)" style="fill: #1f77b4"/>
   </g>
   <g id="patch_36">
    <path d="M 210.059091 173.93875 
L 214.697121 173.93875 
L 214.697121 173.546619 
L 210.059091 173.546619 
z
" clip-path="url(#pd19fb44725)" style="fill: #1f77b4"/>
   </g>
   <g id="patch_37">
    <path d="M 214.697121 173.93875 
L 219.335152 173.93875 
L 219.335152 173.873395 
L 214.697121 173.873395 
z
" clip-path="url(#pd19fb44725)" style="fill: #1f77b4"/>
   </g>
   <g id="patch_38">
    <path d="M 219.335152 173.93875 
L 223.973182 173.93875 
L 223.973182 173.873395 
L 219.335152 173.873395 
z
" clip-path="url(#pd19fb44725)" style="fill: #1f77b4"/>
   </g>
   <g id="patch_39">
    <path d="M 223.973182 173.93875 
L 228.611212 173.93875 
L 228.611212 173.67733 
L 223.973182 173.67733 
z
" clip-path="url(#pd19fb44725)" style="fill: #1f77b4"/>
   </g>
   <g id="patch_40">
    <path d="M 228.611212 173.93875 
L 233.249242 173.93875 
L 233.249242 173.873395 
L 228.611212 173.873395 
z
" clip-path="url(#pd19fb44725)" style="fill: #1f77b4"/>
   </g>
   <g id="patch_41">
    <path d="M 233.249242 173.93875 
L 237.887273 173.93875 
L 237.887273 173.80804 
L 233.249242 173.80804 
z
" clip-path="url(#pd19fb44725)" style="fill: #1f77b4"/>
   </g>
   <g id="patch_42">
    <path d="M 237.887273 173.93875 
L 242.525303 173.93875 
L 242.525303 173.546619 
L 237.887273 173.546619 
z
" clip-path="url(#pd19fb44725)" style="fill: #1f77b4"/>
   </g>
   <g id="patch_43">
    <path d="M 242.525303 173.93875 
L 247.163333 173.93875 
L 247.163333 173.93875 
L 242.525303 173.93875 
z
" clip-path="url(#pd19fb44725)" style="fill: #1f77b4"/>
   </g>
   <g id="patch_44">
    <path d="M 247.163333 173.93875 
L 251.801364 173.93875 
L 251.801364 173.742685 
L 247.163333 173.742685 
z
" clip-path="url(#pd19fb44725)" style="fill: #1f77b4"/>
   </g>
   <g id="patch_45">
    <path d="M 251.801364 173.93875 
L 256.439394 173.93875 
L 256.439394 173.873395 
L 251.801364 173.873395 
z
" clip-path="url(#pd19fb44725)" style="fill: #1f77b4"/>
   </g>
   <g id="patch_46">
    <path d="M 256.439394 173.93875 
L 261.077424 173.93875 
L 261.077424 173.93875 
L 256.439394 173.93875 
z
" clip-path="url(#pd19fb44725)" style="fill: #1f77b4"/>
   </g>
   <g id="patch_47">
    <path d="M 261.077424 173.93875 
L 265.715455 173.93875 
L 265.715455 173.873395 
L 261.077424 173.873395 
z
" clip-path="url(#pd19fb44725)" style="fill: #1f77b4"/>
   </g>
   <g id="patch_48">
    <path d="M 265.715455 173.93875 
L 270.353485 173.93875 
L 270.353485 173.873395 
L 265.715455 173.873395 
z
" clip-path="url(#pd19fb44725)" style="fill: #1f77b4"/>
   </g>
   <g id="patch_49">
    <path d="M 270.353485 173.93875 
L 274.991515 173.93875 
L 274.991515 173.93875 
L 270.353485 173.93875 
z
" clip-path="url(#pd19fb44725)" style="fill: #1f77b4"/>
   </g>
   <g id="patch_50">
    <path d="M 274.991515 173.93875 
L 279.629545 173.93875 
L 279.629545 173.93875 
L 274.991515 173.93875 
z
" clip-path="url(#pd19fb44725)" style="fill: #1f77b4"/>
   </g>
   <g id="patch_51">
    <path d="M 279.629545 173.93875 
L 284.267576 173.93875 
L 284.267576 173.873395 
L 279.629545 173.873395 
z
" clip-path="url(#pd19fb44725)" style="fill: #1f77b4"/>
   </g>
   <g id="patch_52">
    <path d="M 284.267576 173.93875 
L 288.905606 173.93875 
L 288.905606 173.873395 
L 284.267576 173.873395 
z
" clip-path="url(#pd19fb44725)" style="fill: #1f77b4"/>
   </g>
   <g id="patch_53">
    <path d="M 288.905606 173.93875 
L 293.543636 173.93875 
L 293.543636 173.873395 
L 288.905606 173.873395 
z
" clip-path="url(#pd19fb44725)" style="fill: #1f77b4"/>
   </g>
   <g id="patch_54">
    <path d="M 293.543636 173.93875 
L 298.181667 173.93875 
L 298.181667 173.93875 
L 293.543636 173.93875 
z
" clip-path="url(#pd19fb44725)" style="fill: #1f77b4"/>
   </g>
   <g id="patch_55">
    <path d="M 298.181667 173.93875 
L 302.819697 173.93875 
L 302.819697 173.93875 
L 298.181667 173.93875 
z
" clip-path="url(#pd19fb44725)" style="fill: #1f77b4"/>
   </g>
   <g id="patch_56">
    <path d="M 302.819697 173.93875 
L 307.457727 173.93875 
L 307.457727 173.93875 
L 302.819697 173.93875 
z
" clip-path="url(#pd19fb44725)" style="fill: #1f77b4"/>
   </g>
   <g id="patch_57">
    <path d="M 307.457727 173.93875 
L 312.095758 173.93875 
L 312.095758 173.93875 
L 307.457727 173.93875 
z
" clip-path="url(#pd19fb44725)" style="fill: #1f77b4"/>
   </g>
   <g id="patch_58">
    <path d="M 312.095758 173.93875 
L 316.733788 173.93875 
L 316.733788 173.93875 
L 312.095758 173.93875 
z
" clip-path="url(#pd19fb44725)" style="fill: #1f77b4"/>
   </g>
   <g id="patch_59">
    <path d="M 316.733788 173.93875 
L 321.371818 173.93875 
L 321.371818 173.873395 
L 316.733788 173.873395 
z
" clip-path="url(#pd19fb44725)" style="fill: #1f77b4"/>
   </g>
   <g id="patch_60">
    <path d="M 321.371818 173.93875 
L 326.009848 173.93875 
L 326.009848 173.93875 
L 321.371818 173.93875 
z
" clip-path="url(#pd19fb44725)" style="fill: #1f77b4"/>
   </g>
   <g id="patch_61">
    <path d="M 326.009848 173.93875 
L 330.647879 173.93875 
L 330.647879 173.873395 
L 326.009848 173.873395 
z
" clip-path="url(#pd19fb44725)" style="fill: #1f77b4"/>
   </g>
   <g id="patch_62">
    <path d="M 330.647879 173.93875 
L 335.285909 173.93875 
L 335.285909 173.873395 
L 330.647879 173.873395 
z
" clip-path="url(#pd19fb44725)" style="fill: #1f77b4"/>
   </g>
   <g id="matplotlib.axis_1">
    <g id="xtick_1">
     <g id="line2d_1">
      <path d="M 54.487803 173.93875 
L 54.487803 26.88 
" clip-path="url(#pd19fb44725)" style="fill: none; stroke: #b0b0b0; stroke-opacity: 0.2; stroke-width: 0.8; stroke-linecap: square"/>
     </g>
     <g id="line2d_2">
      <defs>
       <path id="m109ec9f2cc" d="M 0 0 
L 0 3.5 
" style="stroke: #000000; stroke-width: 0.8"/>
      </defs>
      <g>
       <use xlink:href="#m109ec9f2cc" x="54.487803" y="173.93875" style="stroke: #000000; stroke-width: 0.8"/>
      </g>
     </g>
     <g id="text_1">
      <!-- 0.00 -->
      <g transform="translate(43.35499 188.537188) scale(0.1 -0.1)">
       <defs>
        <path id="DejaVuSans-30" d="M 2034 4250 
Q 1547 4250 1301 3770 
Q 1056 3291 1056 2328 
Q 1056 1369 1301 889 
Q 1547 409 2034 409 
Q 2525 409 2770 889 
Q 3016 1369 3016 2328 
Q 3016 3291 2770 3770 
Q 2525 4250 2034 4250 
z
M 2034 4750 
Q 2819 4750 3233 4129 
Q 3647 3509 3647 2328 
Q 3647 1150 3233 529 
Q 2819 -91 2034 -91 
Q 1250 -91 836 529 
Q 422 1150 422 2328 
Q 422 3509 836 4129 
Q 1250 4750 2034 4750 
z
" transform="scale(0.015625)"/>
        <path id="DejaVuSans-2e" d="M 684 794 
L 1344 794 
L 1344 0 
L 684 0 
L 684 794 
z
" transform="scale(0.015625)"/>
       </defs>
       <use xlink:href="#DejaVuSans-30"/>
       <use xlink:href="#DejaVuSans-2e" transform="translate(63.623047 0)"/>
       <use xlink:href="#DejaVuSans-30" transform="translate(95.410156 0)"/>
       <use xlink:href="#DejaVuSans-30" transform="translate(159.033203 0)"/>
      </g>
     </g>
    </g>
    <g id="xtick_2">
     <g id="line2d_3">
      <path d="M 88.636999 173.93875 
L 88.636999 26.88 
" clip-path="url(#pd19fb44725)" style="fill: none; stroke: #b0b0b0; stroke-opacity: 0.2; stroke-width: 0.8; stroke-linecap: square"/>
     </g>
     <g id="line2d_4">
      <g>
       <use xlink:href="#m109ec9f2cc" x="88.636999" y="173.93875" style="stroke: #000000; stroke-width: 0.8"/>
      </g>
     </g>
     <g id="text_2">
      <!-- 0.02 -->
      <g transform="translate(77.504186 188.537188) scale(0.1 -0.1)">
       <defs>
        <path id="DejaVuSans-32" d="M 1228 531 
L 3431 531 
L 3431 0 
L 469 0 
L 469 531 
Q 828 903 1448 1529 
Q 2069 2156 2228 2338 
Q 2531 2678 2651 2914 
Q 2772 3150 2772 3378 
Q 2772 3750 2511 3984 
Q 2250 4219 1831 4219 
Q 1534 4219 1204 4116 
Q 875 4013 500 3803 
L 500 4441 
Q 881 4594 1212 4672 
Q 1544 4750 1819 4750 
Q 2544 4750 2975 4387 
Q 3406 4025 3406 3419 
Q 3406 3131 3298 2873 
Q 3191 2616 2906 2266 
Q 2828 2175 2409 1742 
Q 1991 1309 1228 531 
z
" transform="scale(0.015625)"/>
       </defs>
       <use xlink:href="#DejaVuSans-30"/>
       <use xlink:href="#DejaVuSans-2e" transform="translate(63.623047 0)"/>
       <use xlink:href="#DejaVuSans-30" transform="translate(95.410156 0)"/>
       <use xlink:href="#DejaVuSans-32" transform="translate(159.033203 0)"/>
      </g>
     </g>
    </g>
    <g id="xtick_3">
     <g id="line2d_5">
      <path d="M 122.786195 173.93875 
L 122.786195 26.88 
" clip-path="url(#pd19fb44725)" style="fill: none; stroke: #b0b0b0; stroke-opacity: 0.2; stroke-width: 0.8; stroke-linecap: square"/>
     </g>
     <g id="line2d_6">
      <g>
       <use xlink:href="#m109ec9f2cc" x="122.786195" y="173.93875" style="stroke: #000000; stroke-width: 0.8"/>
      </g>
     </g>
     <g id="text_3">
      <!-- 0.04 -->
      <g transform="translate(111.653382 188.537188) scale(0.1 -0.1)">
       <defs>
        <path id="DejaVuSans-34" d="M 2419 4116 
L 825 1625 
L 2419 1625 
L 2419 4116 
z
M 2253 4666 
L 3047 4666 
L 3047 1625 
L 3713 1625 
L 3713 1100 
L 3047 1100 
L 3047 0 
L 2419 0 
L 2419 1100 
L 313 1100 
L 313 1709 
L 2253 4666 
z
" transform="scale(0.015625)"/>
       </defs>
       <use xlink:href="#DejaVuSans-30"/>
       <use xlink:href="#DejaVuSans-2e" transform="translate(63.623047 0)"/>
       <use xlink:href="#DejaVuSans-30" transform="translate(95.410156 0)"/>
       <use xlink:href="#DejaVuSans-34" transform="translate(159.033203 0)"/>
      </g>
     </g>
    </g>
    <g id="xtick_4">
     <g id="line2d_7">
      <path d="M 156.93539 173.93875 
L 156.93539 26.88 
" clip-path="url(#pd19fb44725)" style="fill: none; stroke: #b0b0b0; stroke-opacity: 0.2; stroke-width: 0.8; stroke-linecap: square"/>
     </g>
     <g id="line2d_8">
      <g>
       <use xlink:href="#m109ec9f2cc" x="156.93539" y="173.93875" style="stroke: #000000; stroke-width: 0.8"/>
      </g>
     </g>
     <g id="text_4">
      <!-- 0.06 -->
      <g transform="translate(145.802578 188.537188) scale(0.1 -0.1)">
       <defs>
        <path id="DejaVuSans-36" d="M 2113 2584 
Q 1688 2584 1439 2293 
Q 1191 2003 1191 1497 
Q 1191 994 1439 701 
Q 1688 409 2113 409 
Q 2538 409 2786 701 
Q 3034 994 3034 1497 
Q 3034 2003 2786 2293 
Q 2538 2584 2113 2584 
z
M 3366 4563 
L 3366 3988 
Q 3128 4100 2886 4159 
Q 2644 4219 2406 4219 
Q 1781 4219 1451 3797 
Q 1122 3375 1075 2522 
Q 1259 2794 1537 2939 
Q 1816 3084 2150 3084 
Q 2853 3084 3261 2657 
Q 3669 2231 3669 1497 
Q 3669 778 3244 343 
Q 2819 -91 2113 -91 
Q 1303 -91 875 529 
Q 447 1150 447 2328 
Q 447 3434 972 4092 
Q 1497 4750 2381 4750 
Q 2619 4750 2861 4703 
Q 3103 4656 3366 4563 
z
" transform="scale(0.015625)"/>
       </defs>
       <use xlink:href="#DejaVuSans-30"/>
       <use xlink:href="#DejaVuSans-2e" transform="translate(63.623047 0)"/>
       <use xlink:href="#DejaVuSans-30" transform="translate(95.410156 0)"/>
       <use xlink:href="#DejaVuSans-36" transform="translate(159.033203 0)"/>
      </g>
     </g>
    </g>
    <g id="xtick_5">
     <g id="line2d_9">
      <path d="M 191.084586 173.93875 
L 191.084586 26.88 
" clip-path="url(#pd19fb44725)" style="fill: none; stroke: #b0b0b0; stroke-opacity: 0.2; stroke-width: 0.8; stroke-linecap: square"/>
     </g>
     <g id="line2d_10">
      <g>
       <use xlink:href="#m109ec9f2cc" x="191.084586" y="173.93875" style="stroke: #000000; stroke-width: 0.8"/>
      </g>
     </g>
     <g id="text_5">
      <!-- 0.08 -->
      <g transform="translate(179.951774 188.537188) scale(0.1 -0.1)">
       <defs>
        <path id="DejaVuSans-38" d="M 2034 2216 
Q 1584 2216 1326 1975 
Q 1069 1734 1069 1313 
Q 1069 891 1326 650 
Q 1584 409 2034 409 
Q 2484 409 2743 651 
Q 3003 894 3003 1313 
Q 3003 1734 2745 1975 
Q 2488 2216 2034 2216 
z
M 1403 2484 
Q 997 2584 770 2862 
Q 544 3141 544 3541 
Q 544 4100 942 4425 
Q 1341 4750 2034 4750 
Q 2731 4750 3128 4425 
Q 3525 4100 3525 3541 
Q 3525 3141 3298 2862 
Q 3072 2584 2669 2484 
Q 3125 2378 3379 2068 
Q 3634 1759 3634 1313 
Q 3634 634 3220 271 
Q 2806 -91 2034 -91 
Q 1263 -91 848 271 
Q 434 634 434 1313 
Q 434 1759 690 2068 
Q 947 2378 1403 2484 
z
M 1172 3481 
Q 1172 3119 1398 2916 
Q 1625 2713 2034 2713 
Q 2441 2713 2670 2916 
Q 2900 3119 2900 3481 
Q 2900 3844 2670 4047 
Q 2441 4250 2034 4250 
Q 1625 4250 1398 4047 
Q 1172 3844 1172 3481 
z
" transform="scale(0.015625)"/>
       </defs>
       <use xlink:href="#DejaVuSans-30"/>
       <use xlink:href="#DejaVuSans-2e" transform="translate(63.623047 0)"/>
       <use xlink:href="#DejaVuSans-30" transform="translate(95.410156 0)"/>
       <use xlink:href="#DejaVuSans-38" transform="translate(159.033203 0)"/>
      </g>
     </g>
    </g>
    <g id="xtick_6">
     <g id="line2d_11">
      <path d="M 225.233782 173.93875 
L 225.233782 26.88 
" clip-path="url(#pd19fb44725)" style="fill: none; stroke: #b0b0b0; stroke-opacity: 0.2; stroke-width: 0.8; stroke-linecap: square"/>
     </g>
     <g id="line2d_12">
      <g>
       <use xlink:href="#m109ec9f2cc" x="225.233782" y="173.93875" style="stroke: #000000; stroke-width: 0.8"/>
      </g>
     </g>
     <g id="text_6">
      <!-- 0.10 -->
      <g transform="translate(214.10097 188.537188) scale(0.1 -0.1)">
       <defs>
        <path id="DejaVuSans-31" d="M 794 531 
L 1825 531 
L 1825 4091 
L 703 3866 
L 703 4441 
L 1819 4666 
L 2450 4666 
L 2450 531 
L 3481 531 
L 3481 0 
L 794 0 
L 794 531 
z
" transform="scale(0.015625)"/>
       </defs>
       <use xlink:href="#DejaVuSans-30"/>
       <use xlink:href="#DejaVuSans-2e" transform="translate(63.623047 0)"/>
       <use xlink:href="#DejaVuSans-31" transform="translate(95.410156 0)"/>
       <use xlink:href="#DejaVuSans-30" transform="translate(159.033203 0)"/>
      </g>
     </g>
    </g>
    <g id="xtick_7">
     <g id="line2d_13">
      <path d="M 259.382978 173.93875 
L 259.382978 26.88 
" clip-path="url(#pd19fb44725)" style="fill: none; stroke: #b0b0b0; stroke-opacity: 0.2; stroke-width: 0.8; stroke-linecap: square"/>
     </g>
     <g id="line2d_14">
      <g>
       <use xlink:href="#m109ec9f2cc" x="259.382978" y="173.93875" style="stroke: #000000; stroke-width: 0.8"/>
      </g>
     </g>
     <g id="text_7">
      <!-- 0.12 -->
      <g transform="translate(248.250165 188.537188) scale(0.1 -0.1)">
       <use xlink:href="#DejaVuSans-30"/>
       <use xlink:href="#DejaVuSans-2e" transform="translate(63.623047 0)"/>
       <use xlink:href="#DejaVuSans-31" transform="translate(95.410156 0)"/>
       <use xlink:href="#DejaVuSans-32" transform="translate(159.033203 0)"/>
      </g>
     </g>
    </g>
    <g id="xtick_8">
     <g id="line2d_15">
      <path d="M 293.532174 173.93875 
L 293.532174 26.88 
" clip-path="url(#pd19fb44725)" style="fill: none; stroke: #b0b0b0; stroke-opacity: 0.2; stroke-width: 0.8; stroke-linecap: square"/>
     </g>
     <g id="line2d_16">
      <g>
       <use xlink:href="#m109ec9f2cc" x="293.532174" y="173.93875" style="stroke: #000000; stroke-width: 0.8"/>
      </g>
     </g>
     <g id="text_8">
      <!-- 0.14 -->
      <g transform="translate(282.399361 188.537188) scale(0.1 -0.1)">
       <use xlink:href="#DejaVuSans-30"/>
       <use xlink:href="#DejaVuSans-2e" transform="translate(63.623047 0)"/>
       <use xlink:href="#DejaVuSans-31" transform="translate(95.410156 0)"/>
       <use xlink:href="#DejaVuSans-34" transform="translate(159.033203 0)"/>
      </g>
     </g>
    </g>
    <g id="xtick_9">
     <g id="line2d_17">
      <path d="M 327.68137 173.93875 
L 327.68137 26.88 
" clip-path="url(#pd19fb44725)" style="fill: none; stroke: #b0b0b0; stroke-opacity: 0.2; stroke-width: 0.8; stroke-linecap: square"/>
     </g>
     <g id="line2d_18">
      <g>
       <use xlink:href="#m109ec9f2cc" x="327.68137" y="173.93875" style="stroke: #000000; stroke-width: 0.8"/>
      </g>
     </g>
     <g id="text_9">
      <!-- 0.16 -->
      <g transform="translate(316.548557 188.537188) scale(0.1 -0.1)">
       <use xlink:href="#DejaVuSans-30"/>
       <use xlink:href="#DejaVuSans-2e" transform="translate(63.623047 0)"/>
       <use xlink:href="#DejaVuSans-31" transform="translate(95.410156 0)"/>
       <use xlink:href="#DejaVuSans-36" transform="translate(159.033203 0)"/>
      </g>
     </g>
    </g>
    <g id="text_10">
     <!-- cyc_sim per-sample -->
     <g transform="translate(146.76375 202.215313) scale(0.1 -0.1)">
      <defs>
       <path id="DejaVuSans-63" d="M 3122 3366 
L 3122 2828 
Q 2878 2963 2633 3030 
Q 2388 3097 2138 3097 
Q 1578 3097 1268 2742 
Q 959 2388 959 1747 
Q 959 1106 1268 751 
Q 1578 397 2138 397 
Q 2388 397 2633 464 
Q 2878 531 3122 666 
L 3122 134 
Q 2881 22 2623 -34 
Q 2366 -91 2075 -91 
Q 1284 -91 818 406 
Q 353 903 353 1747 
Q 353 2603 823 3093 
Q 1294 3584 2113 3584 
Q 2378 3584 2631 3529 
Q 2884 3475 3122 3366 
z
" transform="scale(0.015625)"/>
       <path id="DejaVuSans-79" d="M 2059 -325 
Q 1816 -950 1584 -1140 
Q 1353 -1331 966 -1331 
L 506 -1331 
L 506 -850 
L 844 -850 
Q 1081 -850 1212 -737 
Q 1344 -625 1503 -206 
L 1606 56 
L 191 3500 
L 800 3500 
L 1894 763 
L 2988 3500 
L 3597 3500 
L 2059 -325 
z
" transform="scale(0.015625)"/>
       <path id="DejaVuSans-5f" d="M 3263 -1063 
L 3263 -1509 
L -63 -1509 
L -63 -1063 
L 3263 -1063 
z
" transform="scale(0.015625)"/>
       <path id="DejaVuSans-73" d="M 2834 3397 
L 2834 2853 
Q 2591 2978 2328 3040 
Q 2066 3103 1784 3103 
Q 1356 3103 1142 2972 
Q 928 2841 928 2578 
Q 928 2378 1081 2264 
Q 1234 2150 1697 2047 
L 1894 2003 
Q 2506 1872 2764 1633 
Q 3022 1394 3022 966 
Q 3022 478 2636 193 
Q 2250 -91 1575 -91 
Q 1294 -91 989 -36 
Q 684 19 347 128 
L 347 722 
Q 666 556 975 473 
Q 1284 391 1588 391 
Q 1994 391 2212 530 
Q 2431 669 2431 922 
Q 2431 1156 2273 1281 
Q 2116 1406 1581 1522 
L 1381 1569 
Q 847 1681 609 1914 
Q 372 2147 372 2553 
Q 372 3047 722 3315 
Q 1072 3584 1716 3584 
Q 2034 3584 2315 3537 
Q 2597 3491 2834 3397 
z
" transform="scale(0.015625)"/>
       <path id="DejaVuSans-69" d="M 603 3500 
L 1178 3500 
L 1178 0 
L 603 0 
L 603 3500 
z
M 603 4863 
L 1178 4863 
L 1178 4134 
L 603 4134 
L 603 4863 
z
" transform="scale(0.015625)"/>
       <path id="DejaVuSans-6d" d="M 3328 2828 
Q 3544 3216 3844 3400 
Q 4144 3584 4550 3584 
Q 5097 3584 5394 3201 
Q 5691 2819 5691 2113 
L 5691 0 
L 5113 0 
L 5113 2094 
Q 5113 2597 4934 2840 
Q 4756 3084 4391 3084 
Q 3944 3084 3684 2787 
Q 3425 2491 3425 1978 
L 3425 0 
L 2847 0 
L 2847 2094 
Q 2847 2600 2669 2842 
Q 2491 3084 2119 3084 
Q 1678 3084 1418 2786 
Q 1159 2488 1159 1978 
L 1159 0 
L 581 0 
L 581 3500 
L 1159 3500 
L 1159 2956 
Q 1356 3278 1631 3431 
Q 1906 3584 2284 3584 
Q 2666 3584 2933 3390 
Q 3200 3197 3328 2828 
z
" transform="scale(0.015625)"/>
       <path id="DejaVuSans-20" transform="scale(0.015625)"/>
       <path id="DejaVuSans-70" d="M 1159 525 
L 1159 -1331 
L 581 -1331 
L 581 3500 
L 1159 3500 
L 1159 2969 
Q 1341 3281 1617 3432 
Q 1894 3584 2278 3584 
Q 2916 3584 3314 3078 
Q 3713 2572 3713 1747 
Q 3713 922 3314 415 
Q 2916 -91 2278 -91 
Q 1894 -91 1617 61 
Q 1341 213 1159 525 
z
M 3116 1747 
Q 3116 2381 2855 2742 
Q 2594 3103 2138 3103 
Q 1681 3103 1420 2742 
Q 1159 2381 1159 1747 
Q 1159 1113 1420 752 
Q 1681 391 2138 391 
Q 2594 391 2855 752 
Q 3116 1113 3116 1747 
z
" transform="scale(0.015625)"/>
       <path id="DejaVuSans-65" d="M 3597 1894 
L 3597 1613 
L 953 1613 
Q 991 1019 1311 708 
Q 1631 397 2203 397 
Q 2534 397 2845 478 
Q 3156 559 3463 722 
L 3463 178 
Q 3153 47 2828 -22 
Q 2503 -91 2169 -91 
Q 1331 -91 842 396 
Q 353 884 353 1716 
Q 353 2575 817 3079 
Q 1281 3584 2069 3584 
Q 2775 3584 3186 3129 
Q 3597 2675 3597 1894 
z
M 3022 2063 
Q 3016 2534 2758 2815 
Q 2500 3097 2075 3097 
Q 1594 3097 1305 2825 
Q 1016 2553 972 2059 
L 3022 2063 
z
" transform="scale(0.015625)"/>
       <path id="DejaVuSans-72" d="M 2631 2963 
Q 2534 3019 2420 3045 
Q 2306 3072 2169 3072 
Q 1681 3072 1420 2755 
Q 1159 2438 1159 1844 
L 1159 0 
L 581 0 
L 581 3500 
L 1159 3500 
L 1159 2956 
Q 1341 3275 1631 3429 
Q 1922 3584 2338 3584 
Q 2397 3584 2469 3576 
Q 2541 3569 2628 3553 
L 2631 2963 
z
" transform="scale(0.015625)"/>
       <path id="DejaVuSans-2d" d="M 313 2009 
L 1997 2009 
L 1997 1497 
L 313 1497 
L 313 2009 
z
" transform="scale(0.015625)"/>
       <path id="DejaVuSans-61" d="M 2194 1759 
Q 1497 1759 1228 1600 
Q 959 1441 959 1056 
Q 959 750 1161 570 
Q 1363 391 1709 391 
Q 2188 391 2477 730 
Q 2766 1069 2766 1631 
L 2766 1759 
L 2194 1759 
z
M 3341 1997 
L 3341 0 
L 2766 0 
L 2766 531 
Q 2569 213 2275 61 
Q 1981 -91 1556 -91 
Q 1019 -91 701 211 
Q 384 513 384 1019 
Q 384 1609 779 1909 
Q 1175 2209 1959 2209 
L 2766 2209 
L 2766 2266 
Q 2766 2663 2505 2880 
Q 2244 3097 1772 3097 
Q 1472 3097 1187 3025 
Q 903 2953 641 2809 
L 641 3341 
Q 956 3463 1253 3523 
Q 1550 3584 1831 3584 
Q 2591 3584 2966 3190 
Q 3341 2797 3341 1997 
z
" transform="scale(0.015625)"/>
       <path id="DejaVuSans-6c" d="M 603 4863 
L 1178 4863 
L 1178 0 
L 603 0 
L 603 4863 
z
" transform="scale(0.015625)"/>
      </defs>
      <use xlink:href="#DejaVuSans-63"/>
      <use xlink:href="#DejaVuSans-79" transform="translate(54.980469 0)"/>
      <use xlink:href="#DejaVuSans-63" transform="translate(114.160156 0)"/>
      <use xlink:href="#DejaVuSans-5f" transform="translate(169.140625 0)"/>
      <use xlink:href="#DejaVuSans-73" transform="translate(219.140625 0)"/>
      <use xlink:href="#DejaVuSans-69" transform="translate(271.240234 0)"/>
      <use xlink:href="#DejaVuSans-6d" transform="translate(299.023438 0)"/>
      <use xlink:href="#DejaVuSans-20" transform="translate(396.435547 0)"/>
      <use xlink:href="#DejaVuSans-70" transform="translate(428.222656 0)"/>
      <use xlink:href="#DejaVuSans-65" transform="translate(491.699219 0)"/>
      <use xlink:href="#DejaVuSans-72" transform="translate(553.222656 0)"/>
      <use xlink:href="#DejaVuSans-2d" transform="translate(587.960938 0)"/>
      <use xlink:href="#DejaVuSans-73" transform="translate(624.044922 0)"/>
      <use xlink:href="#DejaVuSans-61" transform="translate(676.144531 0)"/>
      <use xlink:href="#DejaVuSans-6d" transform="translate(737.423828 0)"/>
      <use xlink:href="#DejaVuSans-70" transform="translate(834.835938 0)"/>
      <use xlink:href="#DejaVuSans-6c" transform="translate(898.3125 0)"/>
      <use xlink:href="#DejaVuSans-65" transform="translate(926.095703 0)"/>
     </g>
    </g>
   </g>
   <g id="matplotlib.axis_2">
    <g id="ytick_1">
     <g id="line2d_19">
      <path d="M 43.09 173.93875 
L 349.2 173.93875 
" clip-path="url(#pd19fb44725)" style="fill: none; stroke: #b0b0b0; stroke-opacity: 0.2; stroke-width: 0.8; stroke-linecap: square"/>
     </g>
     <g id="line2d_20">
      <defs>
       <path id="me09619de66" d="M 0 0 
L -3.5 0 
" style="stroke: #000000; stroke-width: 0.8"/>
      </defs>
      <g>
       <use xlink:href="#me09619de66" x="43.09" y="173.93875" style="stroke: #000000; stroke-width: 0.8"/>
      </g>
     </g>
     <g id="text_11">
      <!-- 0 -->
      <g transform="translate(29.7275 177.737969) scale(0.1 -0.1)">
       <use xlink:href="#DejaVuSans-30"/>
      </g>
     </g>
    </g>
    <g id="ytick_2">
     <g id="line2d_21">
      <path d="M 43.09 141.261206 
L 349.2 141.261206 
" clip-path="url(#pd19fb44725)" style="fill: none; stroke: #b0b0b0; stroke-opacity: 0.2; stroke-width: 0.8; stroke-linecap: square"/>
     </g>
     <g id="line2d_22">
      <g>
       <use xlink:href="#me09619de66" x="43.09" y="141.261206" style="stroke: #000000; stroke-width: 0.8"/>
      </g>
     </g>
     <g id="text_12">
      <!-- 500 -->
      <g transform="translate(17.0025 145.060425) scale(0.1 -0.1)">
       <defs>
        <path id="DejaVuSans-35" d="M 691 4666 
L 3169 4666 
L 3169 4134 
L 1269 4134 
L 1269 2991 
Q 1406 3038 1543 3061 
Q 1681 3084 1819 3084 
Q 2600 3084 3056 2656 
Q 3513 2228 3513 1497 
Q 3513 744 3044 326 
Q 2575 -91 1722 -91 
Q 1428 -91 1123 -41 
Q 819 9 494 109 
L 494 744 
Q 775 591 1075 516 
Q 1375 441 1709 441 
Q 2250 441 2565 725 
Q 2881 1009 2881 1497 
Q 2881 1984 2565 2268 
Q 2250 2553 1709 2553 
Q 1456 2553 1204 2497 
Q 953 2441 691 2322 
L 691 4666 
z
" transform="scale(0.015625)"/>
       </defs>
       <use xlink:href="#DejaVuSans-35"/>
       <use xlink:href="#DejaVuSans-30" transform="translate(63.623047 0)"/>
       <use xlink:href="#DejaVuSans-30" transform="translate(127.246094 0)"/>
      </g>
     </g>
    </g>
    <g id="ytick_3">
     <g id="line2d_23">
      <path d="M 43.09 108.583663 
L 349.2 108.583663 
" clip-path="url(#pd19fb44725)" style="fill: none; stroke: #b0b0b0; stroke-opacity: 0.2; stroke-width: 0.8; stroke-linecap: square"/>
     </g>
     <g id="line2d_24">
      <g>
       <use xlink:href="#me09619de66" x="43.09" y="108.583663" style="stroke: #000000; stroke-width: 0.8"/>
      </g>
     </g>
     <g id="text_13">
      <!-- 1000 -->
      <g transform="translate(10.64 112.382881) scale(0.1 -0.1)">
       <use xlink:href="#DejaVuSans-31"/>
       <use xlink:href="#DejaVuSans-30" transform="translate(63.623047 0)"/>
       <use xlink:href="#DejaVuSans-30" transform="translate(127.246094 0)"/>
       <use xlink:href="#DejaVuSans-30" transform="translate(190.869141 0)"/>
      </g>
     </g>
    </g>
    <g id="ytick_4">
     <g id="line2d_25">
      <path d="M 43.09 75.906119 
L 349.2 75.906119 
" clip-path="url(#pd19fb44725)" style="fill: none; stroke: #b0b0b0; stroke-opacity: 0.2; stroke-width: 0.8; stroke-linecap: square"/>
     </g>
     <g id="line2d_26">
      <g>
       <use xlink:href="#me09619de66" x="43.09" y="75.906119" style="stroke: #000000; stroke-width: 0.8"/>
      </g>
     </g>
     <g id="text_14">
      <!-- 1500 -->
      <g transform="translate(10.64 79.705338) scale(0.1 -0.1)">
       <use xlink:href="#DejaVuSans-31"/>
       <use xlink:href="#DejaVuSans-35" transform="translate(63.623047 0)"/>
       <use xlink:href="#DejaVuSans-30" transform="translate(127.246094 0)"/>
       <use xlink:href="#DejaVuSans-30" transform="translate(190.869141 0)"/>
      </g>
     </g>
    </g>
    <g id="ytick_5">
     <g id="line2d_27">
      <path d="M 43.09 43.228575 
L 349.2 43.228575 
" clip-path="url(#pd19fb44725)" style="fill: none; stroke: #b0b0b0; stroke-opacity: 0.2; stroke-width: 0.8; stroke-linecap: square"/>
     </g>
     <g id="line2d_28">
      <g>
       <use xlink:href="#me09619de66" x="43.09" y="43.228575" style="stroke: #000000; stroke-width: 0.8"/>
      </g>
     </g>
     <g id="text_15">
      <!-- 2000 -->
      <g transform="translate(10.64 47.027794) scale(0.1 -0.1)">
       <use xlink:href="#DejaVuSans-32"/>
       <use xlink:href="#DejaVuSans-30" transform="translate(63.623047 0)"/>
       <use xlink:href="#DejaVuSans-30" transform="translate(127.246094 0)"/>
       <use xlink:href="#DejaVuSans-30" transform="translate(190.869141 0)"/>
      </g>
     </g>
    </g>
   </g>
   <g id="patch_63">
    <path d="M 43.09 173.93875 
L 43.09 26.88 
" style="fill: none; stroke: #000000; stroke-width: 0.8; stroke-linejoin: miter; stroke-linecap: square"/>
   </g>
   <g id="patch_64">
    <path d="M 349.2 173.93875 
L 349.2 26.88 
" style="fill: none; stroke: #000000; stroke-width: 0.8; stroke-linejoin: miter; stroke-linecap: square"/>
   </g>
   <g id="patch_65">
    <path d="M 43.09 173.93875 
L 349.2 173.93875 
" style="fill: none; stroke: #000000; stroke-width: 0.8; stroke-linejoin: miter; stroke-linecap: square"/>
   </g>
   <g id="patch_66">
    <path d="M 43.09 26.88 
L 349.2 26.88 
" style="fill: none; stroke: #000000; stroke-width: 0.8; stroke-linejoin: miter; stroke-linecap: square"/>
   </g>
   <g id="text_16">
    <!-- cyc_sim per-sample -->
    <g transform="translate(136.8875 20.88) scale(0.12 -0.12)">
     <use xlink:href="#DejaVuSans-63"/>
     <use xlink:href="#DejaVuSans-79" transform="translate(54.980469 0)"/>
     <use xlink:href="#DejaVuSans-63" transform="translate(114.160156 0)"/>
     <use xlink:href="#DejaVuSans-5f" transform="translate(169.140625 0)"/>
     <use xlink:href="#DejaVuSans-73" transform="translate(219.140625 0)"/>
     <use xlink:href="#DejaVuSans-69" transform="translate(271.240234 0)"/>
     <use xlink:href="#DejaVuSans-6d" transform="translate(299.023438 0)"/>
     <use xlink:href="#DejaVuSans-20" transform="translate(396.435547 0)"/>
     <use xlink:href="#DejaVuSans-70" transform="translate(428.222656 0)"/>
     <use xlink:href="#DejaVuSans-65" transform="translate(491.699219 0)"/>
     <use xlink:href="#DejaVuSans-72" transform="translate(553.222656 0)"/>
     <use xlink:href="#DejaVuSans-2d" transform="translate(587.960938 0)"/>
     <use xlink:href="#DejaVuSans-73" transform="translate(624.044922 0)"/>
     <use xlink:href="#DejaVuSans-61" transform="translate(676.144531 0)"/>
     <use xlink:href="#DejaVuSans-6d" transform="translate(737.423828 0)"/>
     <use xlink:href="#DejaVuSans-70" transform="translate(834.835938 0)"/>
     <use xlink:href="#DejaVuSans-6c" transform="translate(898.3125 0)"/>
     <use xlink:href="#DejaVuSans-65" transform="translate(926.095703 0)"/>
    </g>
   </g>
  </g>
 </g>
 <defs>
  <clipPath id="pd19fb44725">
   <rect x="43.09" y="26.88" width="306.11" height="147.05875"/>
  </clipPath>
 </defs>
</svg>
