<?xml version="1.0" encoding="utf-8" standalone="no"?>
<!DOCTYPE svg PUBLIC "-//W3C//DTD SVG 1.1//EN"
  "http://www.w3.org/Graphics/SVG/1.1/DTD/svg11.dtd">
<svg xmlns:xlink="http://www.w3.org/1999/xlink" width="360pt" height="216pt" viewBox="0 0 360 216" xmlns="http://www.w3.org/2000/svg" version="1.1">
 <metadata>
  <rdf:RDF xmlns:dc="http://purl.org/dc/elements/1.1/" xmlns:cc="http://creativecommons.org/ns#" xmlns:rdf="http://www.w3.org/1999/02/22-rdf-syntax-ns#">
   <cc:Work>
    <dc:type rdf:resource="http://purl.org/dc/dcmitype/StillImage"/>
    <dc:date>2025-12-29T20:07:47.852561</dc:date>
    <dc:format>image/svg+xml</dc:format>
    <dc:creator>
     <cc:Agent>
      <dc:title>Matplotlib v3.10.5, https://matplotlib.org/</dc:title>
     </cc:Agent>
    </dc:creator>
   </cc:Work>
  </rdf:RDF>
 </metadata>
 <defs>
  <style type="text/css">*{stroke-linejoin: round; stroke-linecap: butt}</style>
 </defs>
 <g id="figure_1">
  <g id="patch_1">
   <path d="M 0 216 
L 360 216 
L 360 0 
L 0 0 
z
" style="fill: #ffffff"/>
  </g>
  <g id="axes_1">
   <g id="patch_2">
    <path d="M 43.09 173.93875 
L 347.306254 173.93875 
L 347.306254 26.88 
L 43.09 26.88 
z
" style="fill: #ffffff"/>
   </g>
   <g id="patch_3">
    <path d="M 56.918012 173.93875 
L 61.527349 173.93875 
L 61.527349 138.295297 
L 56.918012 138.295297 
z
" clip-path="url(#pb340f251fb)" style="fill: #1f77b4"/>
   </g>
   <g id="patch_4">
    <path d="M 61.527349 173.93875 
L 66.136686 173.93875 
L 66.136686 92.97382 
L 61.527349 92.97382 
z
" clip-path="url(#pb340f251fb)" style="fill: #1f77b4"/>
   </g>
   <g id="patch_5">
    <path d="M 66.136686 173.93875 
L 70.746023 173.93875 
L 70.746023 33.882798 
L 66.136686 33.882798 
z
" clip-path="url(#pb340f251fb)" style="fill: #1f77b4"/>
   </g>
   <g id="patch_6">
    <path d="M 70.746023 173.93875 
L 75.35536 173.93875 
L 75.35536 82.076208 
L 70.746023 82.076208 
z
" clip-path="url(#pb340f251fb)" style="fill: #1f77b4"/>
   </g>
   <g id="patch_7">
    <path d="M 75.35536 173.93875 
L 79.964697 173.93875 
L 79.964697 121.142377 
L 75.35536 121.142377 
z
" clip-path="url(#pb340f251fb)" style="fill: #1f77b4"/>
   </g>
   <g id="patch_8">
    <path d="M 79.964697 173.93875 
L 84.574035 173.93875 
L 84.574035 141.363939 
L 79.964697 141.363939 
z
" clip-path="url(#pb340f251fb)" style="fill: #1f77b4"/>
   </g>
   <g id="patch_9">
    <path d="M 84.574035 173.93875 
L 89.183372 173.93875 
L 89.183372 154.385995 
L 84.574035 154.385995 
z
" clip-path="url(#pb340f251fb)" style="fill: #1f77b4"/>
   </g>
   <g id="patch_10">
    <path d="M 89.183372 173.93875 
L 93.792709 173.93875 
L 93.792709 162.451015 
L 89.183372 162.451015 
z
" clip-path="url(#pb340f251fb)" style="fill: #1f77b4"/>
   </g>
   <g id="patch_11">
    <path d="M 93.792709 173.93875 
L 98.402046 173.93875 
L 98.402046 165.834389 
L 93.792709 165.834389 
z
" clip-path="url(#pb340f251fb)" style="fill: #1f77b4"/>
   </g>
   <g id="patch_12">
    <path d="M 98.402046 173.93875 
L 103.011383 173.93875 
L 103.011383 169.335788 
L 98.402046 169.335788 
z
" clip-path="url(#pb340f251fb)" style="fill: #1f77b4"/>
   </g>
   <g id="patch_13">
    <path d="M 103.011383 173.93875 
L 107.620721 173.93875 
L 107.620721 170.516034 
L 103.011383 170.516034 
z
" clip-path="url(#pb340f251fb)" style="fill: #1f77b4"/>
   </g>
   <g id="patch_14">
    <path d="M 107.620721 173.93875 
L 112.230058 173.93875 
L 112.230058 171.971672 
L 107.620721 171.971672 
z
" clip-path="url(#pb340f251fb)" style="fill: #1f77b4"/>
   </g>
   <g id="patch_15">
    <path d="M 112.230058 173.93875 
L 116.839395 173.93875 
L 116.839395 172.483112 
L 112.230058 172.483112 
z
" clip-path="url(#pb340f251fb)" style="fill: #1f77b4"/>
   </g>
   <g id="patch_16">
    <path d="M 116.839395 173.93875 
L 121.448732 173.93875 
L 121.448732 172.955211 
L 116.839395 172.955211 
z
" clip-path="url(#pb340f251fb)" style="fill: #1f77b4"/>
   </g>
   <g id="patch_17">
    <path d="M 121.448732 173.93875 
L 126.058069 173.93875 
L 126.058069 173.073236 
L 121.448732 173.073236 
z
" clip-path="url(#pb340f251fb)" style="fill: #1f77b4"/>
   </g>
   <g id="patch_18">
    <path d="M 126.058069 173.93875 
L 130.667407 173.93875 
L 130.667407 173.348627 
L 126.058069 173.348627 
z
" clip-path="url(#pb340f251fb)" style="fill: #1f77b4"/>
   </g>
   <g id="patch_19">
    <path d="M 130.667407 173.93875 
L 135.276744 173.93875 
L 135.276744 173.42731 
L 130.667407 173.42731 
z
" clip-path="url(#pb340f251fb)" style="fill: #1f77b4"/>
   </g>
   <g id="patch_20">
    <path d="M 135.276744 173.93875 
L 139.886081 173.93875 
L 139.886081 173.702701 
L 135.276744 173.702701 
z
" clip-path="url(#pb340f251fb)" style="fill: #1f77b4"/>
   </g>
   <g id="patch_21">
    <path d="M 139.886081 173.93875 
L 144.495418 173.93875 
L 144.495418 173.742042 
L 139.886081 173.742042 
z
" clip-path="url(#pb340f251fb)" style="fill: #1f77b4"/>
   </g>
   <g id="patch_22">
    <path d="M 144.495418 173.93875 
L 149.104755 173.93875 
L 149.104755 173.466651 
L 144.495418 173.466651 
z
" clip-path="url(#pb340f251fb)" style="fill: #1f77b4"/>
   </g>
   <g id="patch_23">
    <path d="M 149.104755 173.93875 
L 153.714092 173.93875 
L 153.714092 173.860067 
L 149.104755 173.860067 
z
" clip-path="url(#pb340f251fb)" style="fill: #1f77b4"/>
   </g>
   <g id="patch_24">
    <path d="M 153.714092 173.93875 
L 158.32343 173.93875 
L 158.32343 173.742042 
L 153.714092 173.742042 
z
" clip-path="url(#pb340f251fb)" style="fill: #1f77b4"/>
   </g>
   <g id="patch_25">
    <path d="M 158.32343 173.93875 
L 162.932767 173.93875 
L 162.932767 173.820725 
L 158.32343 173.820725 
z
" clip-path="url(#pb340f251fb)" style="fill: #1f77b4"/>
   </g>
   <g id="patch_26">
    <path d="M 162.932767 173.93875 
L 167.542104 173.93875 
L 167.542104 173.820725 
L 162.932767 173.820725 
z
" clip-path="url(#pb340f251fb)" style="fill: #1f77b4"/>
   </g>
   <g id="patch_27">
    <path d="M 167.542104 173.93875 
L 172.151441 173.93875 
L 172.151441 173.781384 
L 167.542104 173.781384 
z
" clip-path="url(#pb340f251fb)" style="fill: #1f77b4"/>
   </g>
   <g id="patch_28">
    <path d="M 172.151441 173.93875 
L 176.760778 173.93875 
L 176.760778 173.820725 
L 172.151441 173.820725 
z
" clip-path="url(#pb340f251fb)" style="fill: #1f77b4"/>
   </g>
   <g id="patch_29">
    <path d="M 176.760778 173.93875 
L 181.370116 173.93875 
L 181.370116 173.781384 
L 176.760778 173.781384 
z
" clip-path="url(#pb340f251fb)" style="fill: #1f77b4"/>
   </g>
   <g id="patch_30">
    <path d="M 181.370116 173.93875 
L 185.979453 173.93875 
L 185.979453 173.860067 
L 181.370116 173.860067 
z
" clip-path="url(#pb340f251fb)" style="fill: #1f77b4"/>
   </g>
   <g id="patch_31">
    <path d="M 185.979453 173.93875 
L 190.58879 173.93875 
L 190.58879 173.820725 
L 185.979453 173.820725 
z
" clip-path="url(#pb340f251fb)" style="fill: #1f77b4"/>
   </g>
   <g id="patch_32">
    <path d="M 190.58879 173.93875 
L 195.198127 173.93875 
L 195.198127 173.860067 
L 190.58879 173.860067 
z
" clip-path="url(#pb340f251fb)" style="fill: #1f77b4"/>
   </g>
   <g id="patch_33">
    <path d="M 195.198127 173.93875 
L 199.807464 173.93875 
L 199.807464 173.860067 
L 195.198127 173.860067 
z
" clip-path="url(#pb340f251fb)" style="fill: #1f77b4"/>
   </g>
   <g id="patch_34">
    <path d="M 199.807464 173.93875 
L 204.416802 173.93875 
L 204.416802 173.860067 
L 199.807464 173.860067 
z
" clip-path="url(#pb340f251fb)" style="fill: #1f77b4"/>
   </g>
   <g id="patch_35">
    <path d="M 204.416802 173.93875 
L 209.026139 173.93875 
L 209.026139 173.899408 
L 204.416802 173.899408 
z
" clip-path="url(#pb340f251fb)" style="fill: #1f77b4"/>
   </g>
   <g id="patch_36">
    <path d="M 209.026139 173.93875 
L 213.635476 173.93875 
L 213.635476 173.93875 
L 209.026139 173.93875 
z
" clip-path="url(#pb340f251fb)" style="fill: #1f77b4"/>
   </g>
   <g id="patch_37">
    <path d="M 213.635476 173.93875 
L 218.244813 173.93875 
L 218.244813 173.860067 
L 213.635476 173.860067 
z
" clip-path="url(#pb340f251fb)" style="fill: #1f77b4"/>
   </g>
   <g id="patch_38">
    <path d="M 218.244813 173.93875 
L 222.85415 173.93875 
L 222.85415 173.93875 
L 218.244813 173.93875 
z
" clip-path="url(#pb340f251fb)" style="fill: #1f77b4"/>
   </g>
   <g id="patch_39">
    <path d="M 222.85415 173.93875 
L 227.463487 173.93875 
L 227.463487 173.899408 
L 222.85415 173.899408 
z
" clip-path="url(#pb340f251fb)" style="fill: #1f77b4"/>
   </g>
   <g id="patch_40">
    <path d="M 227.463487 173.93875 
L 232.072825 173.93875 
L 232.072825 173.899408 
L 227.463487 173.899408 
z
" clip-path="url(#pb340f251fb)" style="fill: #1f77b4"/>
   </g>
   <g id="patch_41">
    <path d="M 232.072825 173.93875 
L 236.682162 173.93875 
L 236.682162 173.93875 
L 232.072825 173.93875 
z
" clip-path="url(#pb340f251fb)" style="fill: #1f77b4"/>
   </g>
   <g id="patch_42">
    <path d="M 236.682162 173.93875 
L 241.291499 173.93875 
L 241.291499 173.93875 
L 236.682162 173.93875 
z
" clip-path="url(#pb340f251fb)" style="fill: #1f77b4"/>
   </g>
   <g id="patch_43">
    <path d="M 241.291499 173.93875 
L 245.900836 173.93875 
L 245.900836 173.899408 
L 241.291499 173.899408 
z
" clip-path="url(#pb340f251fb)" style="fill: #1f77b4"/>
   </g>
   <g id="patch_44">
    <path d="M 245.900836 173.93875 
L 250.510173 173.93875 
L 250.510173 173.93875 
L 245.900836 173.93875 
z
" clip-path="url(#pb340f251fb)" style="fill: #1f77b4"/>
   </g>
   <g id="patch_45">
    <path d="M 250.510173 173.93875 
L 255.119511 173.93875 
L 255.119511 173.899408 
L 250.510173 173.899408 
z
" clip-path="url(#pb340f251fb)" style="fill: #1f77b4"/>
   </g>
   <g id="patch_46">
    <path d="M 255.119511 173.93875 
L 259.728848 173.93875 
L 259.728848 173.899408 
L 255.119511 173.899408 
z
" clip-path="url(#pb340f251fb)" style="fill: #1f77b4"/>
   </g>
   <g id="patch_47">
    <path d="M 259.728848 173.93875 
L 264.338185 173.93875 
L 264.338185 173.899408 
L 259.728848 173.899408 
z
" clip-path="url(#pb340f251fb)" style="fill: #1f77b4"/>
   </g>
   <g id="patch_48">
    <path d="M 264.338185 173.93875 
L 268.947522 173.93875 
L 268.947522 173.93875 
L 264.338185 173.93875 
z
" clip-path="url(#pb340f251fb)" style="fill: #1f77b4"/>
   </g>
   <g id="patch_49">
    <path d="M 268.947522 173.93875 
L 273.556859 173.93875 
L 273.556859 173.93875 
L 268.947522 173.93875 
z
" clip-path="url(#pb340f251fb)" style="fill: #1f77b4"/>
   </g>
   <g id="patch_50">
    <path d="M 273.556859 173.93875 
L 278.166197 173.93875 
L 278.166197 173.93875 
L 273.556859 173.93875 
z
" clip-path="url(#pb340f251fb)" style="fill: #1f77b4"/>
   </g>
   <g id="patch_51">
    <path d="M 278.166197 173.93875 
L 282.775534 173.93875 
L 282.775534 173.93875 
L 278.166197 173.93875 
z
" clip-path="url(#pb340f251fb)" style="fill: #1f77b4"/>
   </g>
   <g id="patch_52">
    <path d="M 282.775534 173.93875 
L 287.384871 173.93875 
L 287.384871 173.93875 
L 282.775534 173.93875 
z
" clip-path="url(#pb340f251fb)" style="fill: #1f77b4"/>
   </g>
   <g id="patch_53">
    <path d="M 287.384871 173.93875 
L 291.994208 173.93875 
L 291.994208 173.93875 
L 287.384871 173.93875 
z
" clip-path="url(#pb340f251fb)" style="fill: #1f77b4"/>
   </g>
   <g id="patch_54">
    <path d="M 291.994208 173.93875 
L 296.603545 173.93875 
L 296.603545 173.93875 
L 291.994208 173.93875 
z
" clip-path="url(#pb340f251fb)" style="fill: #1f77b4"/>
   </g>
   <g id="patch_55">
    <path d="M 296.603545 173.93875 
L 301.212882 173.93875 
L 301.212882 173.93875 
L 296.603545 173.93875 
z
" clip-path="url(#pb340f251fb)" style="fill: #1f77b4"/>
   </g>
   <g id="patch_56">
    <path d="M 301.212882 173.93875 
L 305.82222 173.93875 
L 305.82222 173.93875 
L 301.212882 173.93875 
z
" clip-path="url(#pb340f251fb)" style="fill: #1f77b4"/>
   </g>
   <g id="patch_57">
    <path d="M 305.82222 173.93875 
L 310.431557 173.93875 
L 310.431557 173.93875 
L 305.82222 173.93875 
z
" clip-path="url(#pb340f251fb)" style="fill: #1f77b4"/>
   </g>
   <g id="patch_58">
    <path d="M 310.431557 173.93875 
L 315.040894 173.93875 
L 315.040894 173.93875 
L 310.431557 173.93875 
z
" clip-path="url(#pb340f251fb)" style="fill: #1f77b4"/>
   </g>
   <g id="patch_59">
    <path d="M 315.040894 173.93875 
L 319.650231 173.93875 
L 319.650231 173.93875 
L 315.040894 173.93875 
z
" clip-path="url(#pb340f251fb)" style="fill: #1f77b4"/>
   </g>
   <g id="patch_60">
    <path d="M 319.650231 173.93875 
L 324.259568 173.93875 
L 324.259568 173.93875 
L 319.650231 173.93875 
z
" clip-path="url(#pb340f251fb)" style="fill: #1f77b4"/>
   </g>
   <g id="patch_61">
    <path d="M 324.259568 173.93875 
L 328.868906 173.93875 
L 328.868906 173.93875 
L 324.259568 173.93875 
z
" clip-path="url(#pb340f251fb)" style="fill: #1f77b4"/>
   </g>
   <g id="patch_62">
    <path d="M 328.868906 173.93875 
L 333.478243 173.93875 
L 333.478243 173.899408 
L 328.868906 173.899408 
z
" clip-path="url(#pb340f251fb)" style="fill: #1f77b4"/>
   </g>
   <g id="matplotlib.axis_1">
    <g id="xtick_1">
     <g id="line2d_1">
      <path d="M 55.476483 173.93875 
L 55.476483 26.88 
" clip-path="url(#pb340f251fb)" style="fill: none; stroke: #b0b0b0; stroke-opacity: 0.2; stroke-width: 0.8; stroke-linecap: square"/>
     </g>
     <g id="line2d_2">
      <defs>
       <path id="m4f283a6b4c" d="M 0 0 
L 0 3.5 
" style="stroke: #000000; stroke-width: 0.8"/>
      </defs>
      <g>
       <use xlink:href="#m4f283a6b4c" x="55.476483" y="173.93875" style="stroke: #000000; stroke-width: 0.8"/>
      </g>
     </g>
     <g id="text_1">
      <!-- 0.000 -->
      <g transform="translate(41.162421 188.537188) scale(0.1 -0.1)">
       <defs>
        <path id="DejaVuSans-30" d="M 2034 4250 
Q 1547 4250 1301 3770 
Q 1056 3291 1056 2328 
Q 1056 1369 1301 889 
Q 1547 409 2034 409 
Q 2525 409 2770 889 
Q 3016 1369 3016 2328 
Q 3016 3291 2770 3770 
Q 2525 4250 2034 4250 
z
M 2034 4750 
Q 2819 4750 3233 4129 
Q 3647 3509 3647 2328 
Q 3647 1150 3233 529 
Q 2819 -91 2034 -91 
Q 1250 -91 836 529 
Q 422 1150 422 2328 
Q 422 3509 836 4129 
Q 1250 4750 2034 4750 
z
" transform="scale(0.015625)"/>
        <path id="DejaVuSans-2e" d="M 684 794 
L 1344 794 
L 1344 0 
L 684 0 
L 684 794 
z
" transform="scale(0.015625)"/>
       </defs>
       <use xlink:href="#DejaVuSans-30"/>
       <use xlink:href="#DejaVuSans-2e" transform="translate(63.623047 0)"/>
       <use xlink:href="#DejaVuSans-30" transform="translate(95.410156 0)"/>
       <use xlink:href="#DejaVuSans-30" transform="translate(159.033203 0)"/>
       <use xlink:href="#DejaVuSans-30" transform="translate(222.65625 0)"/>
      </g>
     </g>
    </g>
    <g id="xtick_2">
     <g id="line2d_3">
      <path d="M 90.281299 173.93875 
L 90.281299 26.88 
" clip-path="url(#pb340f251fb)" style="fill: none; stroke: #b0b0b0; stroke-opacity: 0.2; stroke-width: 0.8; stroke-linecap: square"/>
     </g>
     <g id="line2d_4">
      <g>
       <use xlink:href="#m4f283a6b4c" x="90.281299" y="173.93875" style="stroke: #000000; stroke-width: 0.8"/>
      </g>
     </g>
     <g id="text_2">
      <!-- 0.025 -->
      <g transform="translate(75.967237 188.537188) scale(0.1 -0.1)">
       <defs>
        <path id="DejaVuSans-32" d="M 1228 531 
L 3431 531 
L 3431 0 
L 469 0 
L 469 531 
Q 828 903 1448 1529 
Q 2069 2156 2228 2338 
Q 2531 2678 2651 2914 
Q 2772 3150 2772 3378 
Q 2772 3750 2511 3984 
Q 2250 4219 1831 4219 
Q 1534 4219 1204 4116 
Q 875 4013 500 3803 
L 500 4441 
Q 881 4594 1212 4672 
Q 1544 4750 1819 4750 
Q 2544 4750 2975 4387 
Q 3406 4025 3406 3419 
Q 3406 3131 3298 2873 
Q 3191 2616 2906 2266 
Q 2828 2175 2409 1742 
Q 1991 1309 1228 531 
z
" transform="scale(0.015625)"/>
        <path id="DejaVuSans-35" d="M 691 4666 
L 3169 4666 
L 3169 4134 
L 1269 4134 
L 1269 2991 
Q 1406 3038 1543 3061 
Q 1681 3084 1819 3084 
Q 2600 3084 3056 2656 
Q 3513 2228 3513 1497 
Q 3513 744 3044 326 
Q 2575 -91 1722 -91 
Q 1428 -91 1123 -41 
Q 819 9 494 109 
L 494 744 
Q 775 591 1075 516 
Q 1375 441 1709 441 
Q 2250 441 2565 725 
Q 2881 1009 2881 1497 
Q 2881 1984 2565 2268 
Q 2250 2553 1709 2553 
Q 1456 2553 1204 2497 
Q 953 2441 691 2322 
L 691 4666 
z
" transform="scale(0.015625)"/>
       </defs>
       <use xlink:href="#DejaVuSans-30"/>
       <use xlink:href="#DejaVuSans-2e" transform="translate(63.623047 0)"/>
       <use xlink:href="#DejaVuSans-30" transform="translate(95.410156 0)"/>
       <use xlink:href="#DejaVuSans-32" transform="translate(159.033203 0)"/>
       <use xlink:href="#DejaVuSans-35" transform="translate(222.65625 0)"/>
      </g>
     </g>
    </g>
    <g id="xtick_3">
     <g id="line2d_5">
      <path d="M 125.086115 173.93875 
L 125.086115 26.88 
" clip-path="url(#pb340f251fb)" style="fill: none; stroke: #b0b0b0; stroke-opacity: 0.2; stroke-width: 0.8; stroke-linecap: square"/>
     </g>
     <g id="line2d_6">
      <g>
       <use xlink:href="#m4f283a6b4c" x="125.086115" y="173.93875" style="stroke: #000000; stroke-width: 0.8"/>
      </g>
     </g>
     <g id="text_3">
      <!-- 0.050 -->
      <g transform="translate(110.772052 188.537188) scale(0.1 -0.1)">
       <use xlink:href="#DejaVuSans-30"/>
       <use xlink:href="#DejaVuSans-2e" transform="translate(63.623047 0)"/>
       <use xlink:href="#DejaVuSans-30" transform="translate(95.410156 0)"/>
       <use xlink:href="#DejaVuSans-35" transform="translate(159.033203 0)"/>
       <use xlink:href="#DejaVuSans-30" transform="translate(222.65625 0)"/>
      </g>
     </g>
    </g>
    <g id="xtick_4">
     <g id="line2d_7">
      <path d="M 159.890931 173.93875 
L 159.890931 26.88 
" clip-path="url(#pb340f251fb)" style="fill: none; stroke: #b0b0b0; stroke-opacity: 0.2; stroke-width: 0.8; stroke-linecap: square"/>
     </g>
     <g id="line2d_8">
      <g>
       <use xlink:href="#m4f283a6b4c" x="159.890931" y="173.93875" style="stroke: #000000; stroke-width: 0.8"/>
      </g>
     </g>
     <g id="text_4">
      <!-- 0.075 -->
      <g transform="translate(145.576868 188.537188) scale(0.1 -0.1)">
       <defs>
        <path id="DejaVuSans-37" d="M 525 4666 
L 3525 4666 
L 3525 4397 
L 1831 0 
L 1172 0 
L 2766 4134 
L 525 4134 
L 525 4666 
z
" transform="scale(0.015625)"/>
       </defs>
       <use xlink:href="#DejaVuSans-30"/>
       <use xlink:href="#DejaVuSans-2e" transform="translate(63.623047 0)"/>
       <use xlink:href="#DejaVuSans-30" transform="translate(95.410156 0)"/>
       <use xlink:href="#DejaVuSans-37" transform="translate(159.033203 0)"/>
       <use xlink:href="#DejaVuSans-35" transform="translate(222.65625 0)"/>
      </g>
     </g>
    </g>
    <g id="xtick_5">
     <g id="line2d_9">
      <path d="M 194.695747 173.93875 
L 194.695747 26.88 
" clip-path="url(#pb340f251fb)" style="fill: none; stroke: #b0b0b0; stroke-opacity: 0.2; stroke-width: 0.8; stroke-linecap: square"/>
     </g>
     <g id="line2d_10">
      <g>
       <use xlink:href="#m4f283a6b4c" x="194.695747" y="173.93875" style="stroke: #000000; stroke-width: 0.8"/>
      </g>
     </g>
     <g id="text_5">
      <!-- 0.100 -->
      <g transform="translate(180.381684 188.537188) scale(0.1 -0.1)">
       <defs>
        <path id="DejaVuSans-31" d="M 794 531 
L 1825 531 
L 1825 4091 
L 703 3866 
L 703 4441 
L 1819 4666 
L 2450 4666 
L 2450 531 
L 3481 531 
L 3481 0 
L 794 0 
L 794 531 
z
" transform="scale(0.015625)"/>
       </defs>
       <use xlink:href="#DejaVuSans-30"/>
       <use xlink:href="#DejaVuSans-2e" transform="translate(63.623047 0)"/>
       <use xlink:href="#DejaVuSans-31" transform="translate(95.410156 0)"/>
       <use xlink:href="#DejaVuSans-30" transform="translate(159.033203 0)"/>
       <use xlink:href="#DejaVuSans-30" transform="translate(222.65625 0)"/>
      </g>
     </g>
    </g>
    <g id="xtick_6">
     <g id="line2d_11">
      <path d="M 229.500562 173.93875 
L 229.500562 26.88 
" clip-path="url(#pb340f251fb)" style="fill: none; stroke: #b0b0b0; stroke-opacity: 0.2; stroke-width: 0.8; stroke-linecap: square"/>
     </g>
     <g id="line2d_12">
      <g>
       <use xlink:href="#m4f283a6b4c" x="229.500562" y="173.93875" style="stroke: #000000; stroke-width: 0.8"/>
      </g>
     </g>
     <g id="text_6">
      <!-- 0.125 -->
      <g transform="translate(215.1865 188.537188) scale(0.1 -0.1)">
       <use xlink:href="#DejaVuSans-30"/>
       <use xlink:href="#DejaVuSans-2e" transform="translate(63.623047 0)"/>
       <use xlink:href="#DejaVuSans-31" transform="translate(95.410156 0)"/>
       <use xlink:href="#DejaVuSans-32" transform="translate(159.033203 0)"/>
       <use xlink:href="#DejaVuSans-35" transform="translate(222.65625 0)"/>
      </g>
     </g>
    </g>
    <g id="xtick_7">
     <g id="line2d_13">
      <path d="M 264.305378 173.93875 
L 264.305378 26.88 
" clip-path="url(#pb340f251fb)" style="fill: none; stroke: #b0b0b0; stroke-opacity: 0.2; stroke-width: 0.8; stroke-linecap: square"/>
     </g>
     <g id="line2d_14">
      <g>
       <use xlink:href="#m4f283a6b4c" x="264.305378" y="173.93875" style="stroke: #000000; stroke-width: 0.8"/>
      </g>
     </g>
     <g id="text_7">
      <!-- 0.150 -->
      <g transform="translate(249.991316 188.537188) scale(0.1 -0.1)">
       <use xlink:href="#DejaVuSans-30"/>
       <use xlink:href="#DejaVuSans-2e" transform="translate(63.623047 0)"/>
       <use xlink:href="#DejaVuSans-31" transform="translate(95.410156 0)"/>
       <use xlink:href="#DejaVuSans-35" transform="translate(159.033203 0)"/>
       <use xlink:href="#DejaVuSans-30" transform="translate(222.65625 0)"/>
      </g>
     </g>
    </g>
    <g id="xtick_8">
     <g id="line2d_15">
      <path d="M 299.110194 173.93875 
L 299.110194 26.88 
" clip-path="url(#pb340f251fb)" style="fill: none; stroke: #b0b0b0; stroke-opacity: 0.2; stroke-width: 0.8; stroke-linecap: square"/>
     </g>
     <g id="line2d_16">
      <g>
       <use xlink:href="#m4f283a6b4c" x="299.110194" y="173.93875" style="stroke: #000000; stroke-width: 0.8"/>
      </g>
     </g>
     <g id="text_8">
      <!-- 0.175 -->
      <g transform="translate(284.796132 188.537188) scale(0.1 -0.1)">
       <use xlink:href="#DejaVuSans-30"/>
       <use xlink:href="#DejaVuSans-2e" transform="translate(63.623047 0)"/>
       <use xlink:href="#DejaVuSans-31" transform="translate(95.410156 0)"/>
       <use xlink:href="#DejaVuSans-37" transform="translate(159.033203 0)"/>
       <use xlink:href="#DejaVuSans-35" transform="translate(222.65625 0)"/>
      </g>
     </g>
    </g>
    <g id="xtick_9">
     <g id="line2d_17">
      <path d="M 333.91501 173.93875 
L 333.91501 26.88 
" clip-path="url(#pb340f251fb)" style="fill: none; stroke: #b0b0b0; stroke-opacity: 0.2; stroke-width: 0.8; stroke-linecap: square"/>
     </g>
     <g id="line2d_18">
      <g>
       <use xlink:href="#m4f283a6b4c" x="333.91501" y="173.93875" style="stroke: #000000; stroke-width: 0.8"/>
      </g>
     </g>
     <g id="text_9">
      <!-- 0.200 -->
      <g transform="translate(319.600947 188.537188) scale(0.1 -0.1)">
       <use xlink:href="#DejaVuSans-30"/>
       <use xlink:href="#DejaVuSans-2e" transform="translate(63.623047 0)"/>
       <use xlink:href="#DejaVuSans-32" transform="translate(95.410156 0)"/>
       <use xlink:href="#DejaVuSans-30" transform="translate(159.033203 0)"/>
       <use xlink:href="#DejaVuSans-30" transform="translate(222.65625 0)"/>
      </g>
     </g>
    </g>
    <g id="text_10">
     <!-- proxy_floor per-sample -->
     <g transform="translate(137.876252 202.215313) scale(0.1 -0.1)">
      <defs>
       <path id="DejaVuSans-70" d="M 1159 525 
L 1159 -1331 
L 581 -1331 
L 581 3500 
L 1159 3500 
L 1159 2969 
Q 1341 3281 1617 3432 
Q 1894 3584 2278 3584 
Q 2916 3584 3314 3078 
Q 3713 2572 3713 1747 
Q 3713 922 3314 415 
Q 2916 -91 2278 -91 
Q 1894 -91 1617 61 
Q 1341 213 1159 525 
z
M 3116 1747 
Q 3116 2381 2855 2742 
Q 2594 3103 2138 3103 
Q 1681 3103 1420 2742 
Q 1159 2381 1159 1747 
Q 1159 1113 1420 752 
Q 1681 391 2138 391 
Q 2594 391 2855 752 
Q 3116 1113 3116 1747 
z
" transform="scale(0.015625)"/>
       <path id="DejaVuSans-72" d="M 2631 2963 
Q 2534 3019 2420 3045 
Q 2306 3072 2169 3072 
Q 1681 3072 1420 2755 
Q 1159 2438 1159 1844 
L 1159 0 
L 581 0 
L 581 3500 
L 1159 3500 
L 1159 2956 
Q 1341 3275 1631 3429 
Q 1922 3584 2338 3584 
Q 2397 3584 2469 3576 
Q 2541 3569 2628 3553 
L 2631 2963 
z
" transform="scale(0.015625)"/>
       <path id="DejaVuSans-6f" d="M 1959 3097 
Q 1497 3097 1228 2736 
Q 959 2375 959 1747 
Q 959 1119 1226 758 
Q 1494 397 1959 397 
Q 2419 397 2687 759 
Q 2956 1122 2956 1747 
Q 2956 2369 2687 2733 
Q 2419 3097 1959 3097 
z
M 1959 3584 
Q 2709 3584 3137 3096 
Q 3566 2609 3566 1747 
Q 3566 888 3137 398 
Q 2709 -91 1959 -91 
Q 1206 -91 779 398 
Q 353 888 353 1747 
Q 353 2609 779 3096 
Q 1206 3584 1959 3584 
z
" transform="scale(0.015625)"/>
       <path id="DejaVuSans-78" d="M 3513 3500 
L 2247 1797 
L 3578 0 
L 2900 0 
L 1881 1375 
L 863 0 
L 184 0 
L 1544 1831 
L 300 3500 
L 978 3500 
L 1906 2253 
L 2834 3500 
L 3513 3500 
z
" transform="scale(0.015625)"/>
       <path id="DejaVuSans-79" d="M 2059 -325 
Q 1816 -950 1584 -1140 
Q 1353 -1331 966 -1331 
L 506 -1331 
L 506 -850 
L 844 -850 
Q 1081 -850 1212 -737 
Q 1344 -625 1503 -206 
L 1606 56 
L 191 3500 
L 800 3500 
L 1894 763 
L 2988 3500 
L 3597 3500 
L 2059 -325 
z
" transform="scale(0.015625)"/>
       <path id="DejaVuSans-5f" d="M 3263 -1063 
L 3263 -1509 
L -63 -1509 
L -63 -1063 
L 3263 -1063 
z
" transform="scale(0.015625)"/>
       <path id="DejaVuSans-66" d="M 2375 4863 
L 2375 4384 
L 1825 4384 
Q 1516 4384 1395 4259 
Q 1275 4134 1275 3809 
L 1275 3500 
L 2222 3500 
L 2222 3053 
L 1275 3053 
L 1275 0 
L 697 0 
L 697 3053 
L 147 3053 
L 147 3500 
L 697 3500 
L 697 3744 
Q 697 4328 969 4595 
Q 1241 4863 1831 4863 
L 2375 4863 
z
" transform="scale(0.015625)"/>
       <path id="DejaVuSans-6c" d="M 603 4863 
L 1178 4863 
L 1178 0 
L 603 0 
L 603 4863 
z
" transform="scale(0.015625)"/>
       <path id="DejaVuSans-20" transform="scale(0.015625)"/>
       <path id="DejaVuSans-65" d="M 3597 1894 
L 3597 1613 
L 953 1613 
Q 991 1019 1311 708 
Q 1631 397 2203 397 
Q 2534 397 2845 478 
Q 3156 559 3463 722 
L 3463 178 
Q 3153 47 2828 -22 
Q 2503 -91 2169 -91 
Q 1331 -91 842 396 
Q 353 884 353 1716 
Q 353 2575 817 3079 
Q 1281 3584 2069 3584 
Q 2775 3584 3186 3129 
Q 3597 2675 3597 1894 
z
M 3022 2063 
Q 3016 2534 2758 2815 
Q 2500 3097 2075 3097 
Q 1594 3097 1305 2825 
Q 1016 2553 972 2059 
L 3022 2063 
z
" transform="scale(0.015625)"/>
       <path id="DejaVuSans-2d" d="M 313 2009 
L 1997 2009 
L 1997 1497 
L 313 1497 
L 313 2009 
z
" transform="scale(0.015625)"/>
       <path id="DejaVuSans-73" d="M 2834 3397 
L 2834 2853 
Q 2591 2978 2328 3040 
Q 2066 3103 1784 3103 
Q 1356 3103 1142 2972 
Q 928 2841 928 2578 
Q 928 2378 1081 2264 
Q 1234 2150 1697 2047 
L 1894 2003 
Q 2506 1872 2764 1633 
Q 3022 1394 3022 966 
Q 3022 478 2636 193 
Q 2250 -91 1575 -91 
Q 1294 -91 989 -36 
Q 684 19 347 128 
L 347 722 
Q 666 556 975 473 
Q 1284 391 1588 391 
Q 1994 391 2212 530 
Q 2431 669 2431 922 
Q 2431 1156 2273 1281 
Q 2116 1406 1581 1522 
L 1381 1569 
Q 847 1681 609 1914 
Q 372 2147 372 2553 
Q 372 3047 722 3315 
Q 1072 3584 1716 3584 
Q 2034 3584 2315 3537 
Q 2597 3491 2834 3397 
z
" transform="scale(0.015625)"/>
       <path id="DejaVuSans-61" d="M 2194 1759 
Q 1497 1759 1228 1600 
Q 959 1441 959 1056 
Q 959 750 1161 570 
Q 1363 391 1709 391 
Q 2188 391 2477 730 
Q 2766 1069 2766 1631 
L 2766 1759 
L 2194 1759 
z
M 3341 1997 
L 3341 0 
L 2766 0 
L 2766 531 
Q 2569 213 2275 61 
Q 1981 -91 1556 -91 
Q 1019 -91 701 211 
Q 384 513 384 1019 
Q 384 1609 779 1909 
Q 1175 2209 1959 2209 
L 2766 2209 
L 2766 2266 
Q 2766 2663 2505 2880 
Q 2244 3097 1772 3097 
Q 1472 3097 1187 3025 
Q 903 2953 641 2809 
L 641 3341 
Q 956 3463 1253 3523 
Q 1550 3584 1831 3584 
Q 2591 3584 2966 3190 
Q 3341 2797 3341 1997 
z
" transform="scale(0.015625)"/>
       <path id="DejaVuSans-6d" d="M 3328 2828 
Q 3544 3216 3844 3400 
Q 4144 3584 4550 3584 
Q 5097 3584 5394 3201 
Q 5691 2819 5691 2113 
L 5691 0 
L 5113 0 
L 5113 2094 
Q 5113 2597 4934 2840 
Q 4756 3084 4391 3084 
Q 3944 3084 3684 2787 
Q 3425 2491 3425 1978 
L 3425 0 
L 2847 0 
L 2847 2094 
Q 2847 2600 2669 2842 
Q 2491 3084 2119 3084 
Q 1678 3084 1418 2786 
Q 1159 2488 1159 1978 
L 1159 0 
L 581 0 
L 581 3500 
L 1159 3500 
L 1159 2956 
Q 1356 3278 1631 3431 
Q 1906 3584 2284 3584 
Q 2666 3584 2933 3390 
Q 3200 3197 3328 2828 
z
" transform="scale(0.015625)"/>
      </defs>
      <use xlink:href="#DejaVuSans-70"/>
      <use xlink:href="#DejaVuSans-72" transform="translate(63.476562 0)"/>
      <use xlink:href="#DejaVuSans-6f" transform="translate(102.339844 0)"/>
      <use xlink:href="#DejaVuSans-78" transform="translate(160.396484 0)"/>
      <use xlink:href="#DejaVuSans-79" transform="translate(219.576172 0)"/>
      <use xlink:href="#DejaVuSans-5f" transform="translate(278.755859 0)"/>
      <use xlink:href="#DejaVuSans-66" transform="translate(328.755859 0)"/>
      <use xlink:href="#DejaVuSans-6c" transform="translate(363.960938 0)"/>
      <use xlink:href="#DejaVuSans-6f" transform="translate(391.744141 0)"/>
      <use xlink:href="#DejaVuSans-6f" transform="translate(452.925781 0)"/>
      <use xlink:href="#DejaVuSans-72" transform="translate(514.107422 0)"/>
      <use xlink:href="#DejaVuSans-20" transform="translate(555.220703 0)"/>
      <use xlink:href="#DejaVuSans-70" transform="translate(587.007812 0)"/>
      <use xlink:href="#DejaVuSans-65" transform="translate(650.484375 0)"/>
      <use xlink:href="#DejaVuSans-72" transform="translate(712.007812 0)"/>
      <use xlink:href="#DejaVuSans-2d" transform="translate(746.746094 0)"/>
      <use xlink:href="#DejaVuSans-73" transform="translate(782.830078 0)"/>
      <use xlink:href="#DejaVuSans-61" transform="translate(834.929688 0)"/>
      <use xlink:href="#DejaVuSans-6d" transform="translate(896.208984 0)"/>
      <use xlink:href="#DejaVuSans-70" transform="translate(993.621094 0)"/>
      <use xlink:href="#DejaVuSans-6c" transform="translate(1057.097656 0)"/>
      <use xlink:href="#DejaVuSans-65" transform="translate(1084.880859 0)"/>
     </g>
    </g>
   </g>
   <g id="matplotlib.axis_2">
    <g id="ytick_1">
     <g id="line2d_19">
      <path d="M 43.09 173.93875 
L 347.306254 173.93875 
" clip-path="url(#pb340f251fb)" style="fill: none; stroke: #b0b0b0; stroke-opacity: 0.2; stroke-width: 0.8; stroke-linecap: square"/>
     </g>
     <g id="line2d_20">
      <defs>
       <path id="md3932cacf3" d="M 0 0 
L -3.5 0 
" style="stroke: #000000; stroke-width: 0.8"/>
      </defs>
      <g>
       <use xlink:href="#md3932cacf3" x="43.09" y="173.93875" style="stroke: #000000; stroke-width: 0.8"/>
      </g>
     </g>
     <g id="text_11">
      <!-- 0 -->
      <g transform="translate(29.7275 177.737969) scale(0.1 -0.1)">
       <use xlink:href="#DejaVuSans-30"/>
      </g>
     </g>
    </g>
    <g id="ytick_2">
     <g id="line2d_21">
      <path d="M 43.09 134.59719 
L 347.306254 134.59719 
" clip-path="url(#pb340f251fb)" style="fill: none; stroke: #b0b0b0; stroke-opacity: 0.2; stroke-width: 0.8; stroke-linecap: square"/>
     </g>
     <g id="line2d_22">
      <g>
       <use xlink:href="#md3932cacf3" x="43.09" y="134.59719" style="stroke: #000000; stroke-width: 0.8"/>
      </g>
     </g>
     <g id="text_12">
      <!-- 1000 -->
      <g transform="translate(10.64 138.396409) scale(0.1 -0.1)">
       <use xlink:href="#DejaVuSans-31"/>
       <use xlink:href="#DejaVuSans-30" transform="translate(63.623047 0)"/>
       <use xlink:href="#DejaVuSans-30" transform="translate(127.246094 0)"/>
       <use xlink:href="#DejaVuSans-30" transform="translate(190.869141 0)"/>
      </g>
     </g>
    </g>
    <g id="ytick_3">
     <g id="line2d_23">
      <path d="M 43.09 95.255631 
L 347.306254 95.255631 
" clip-path="url(#pb340f251fb)" style="fill: none; stroke: #b0b0b0; stroke-opacity: 0.2; stroke-width: 0.8; stroke-linecap: square"/>
     </g>
     <g id="line2d_24">
      <g>
       <use xlink:href="#md3932cacf3" x="43.09" y="95.255631" style="stroke: #000000; stroke-width: 0.8"/>
      </g>
     </g>
     <g id="text_13">
      <!-- 2000 -->
      <g transform="translate(10.64 99.054849) scale(0.1 -0.1)">
       <use xlink:href="#DejaVuSans-32"/>
       <use xlink:href="#DejaVuSans-30" transform="translate(63.623047 0)"/>
       <use xlink:href="#DejaVuSans-30" transform="translate(127.246094 0)"/>
       <use xlink:href="#DejaVuSans-30" transform="translate(190.869141 0)"/>
      </g>
     </g>
    </g>
    <g id="ytick_4">
     <g id="line2d_25">
      <path d="M 43.09 55.914071 
L 347.306254 55.914071 
" clip-path="url(#pb340f251fb)" style="fill: none; stroke: #b0b0b0; stroke-opacity: 0.2; stroke-width: 0.8; stroke-linecap: square"/>
     </g>
     <g id="line2d_26">
      <g>
       <use xlink:href="#md3932cacf3" x="43.09" y="55.914071" style="stroke: #000000; stroke-width: 0.8"/>
      </g>
     </g>
     <g id="text_14">
      <!-- 3000 -->
      <g transform="translate(10.64 59.71329) scale(0.1 -0.1)">
       <defs>
        <path id="DejaVuSans-33" d="M 2597 2516 
Q 3050 2419 3304 2112 
Q 3559 1806 3559 1356 
Q 3559 666 3084 287 
Q 2609 -91 1734 -91 
Q 1441 -91 1130 -33 
Q 819 25 488 141 
L 488 750 
Q 750 597 1062 519 
Q 1375 441 1716 441 
Q 2309 441 2620 675 
Q 2931 909 2931 1356 
Q 2931 1769 2642 2001 
Q 2353 2234 1838 2234 
L 1294 2234 
L 1294 2753 
L 1863 2753 
Q 2328 2753 2575 2939 
Q 2822 3125 2822 3475 
Q 2822 3834 2567 4026 
Q 2313 4219 1838 4219 
Q 1578 4219 1281 4162 
Q 984 4106 628 3988 
L 628 4550 
Q 988 4650 1302 4700 
Q 1616 4750 1894 4750 
Q 2613 4750 3031 4423 
Q 3450 4097 3450 3541 
Q 3450 3153 3228 2886 
Q 3006 2619 2597 2516 
z
" transform="scale(0.015625)"/>
       </defs>
       <use xlink:href="#DejaVuSans-33"/>
       <use xlink:href="#DejaVuSans-30" transform="translate(63.623047 0)"/>
       <use xlink:href="#DejaVuSans-30" transform="translate(127.246094 0)"/>
       <use xlink:href="#DejaVuSans-30" transform="translate(190.869141 0)"/>
      </g>
     </g>
    </g>
   </g>
   <g id="patch_63">
    <path d="M 43.09 173.93875 
L 43.09 26.88 
" style="fill: none; stroke: #000000; stroke-width: 0.8; stroke-linejoin: miter; stroke-linecap: square"/>
   </g>
   <g id="patch_64">
    <path d="M 347.306254 173.93875 
L 347.306254 26.88 
" style="fill: none; stroke: #000000; stroke-width: 0.8; stroke-linejoin: miter; stroke-linecap: square"/>
   </g>
   <g id="patch_65">
    <path d="M 43.09 173.93875 
L 347.306254 173.93875 
" style="fill: none; stroke: #000000; stroke-width: 0.8; stroke-linejoin: miter; stroke-linecap: square"/>
   </g>
   <g id="patch_66">
    <path d="M 43.09 26.88 
L 347.306254 26.88 
" style="fill: none; stroke: #000000; stroke-width: 0.8; stroke-linejoin: miter; stroke-linecap: square"/>
   </g>
   <g id="text_15">
    <!-- proxy_floor per-sample -->
    <g transform="translate(126.411877 20.88) scale(0.12 -0.12)">
     <use xlink:href="#DejaVuSans-70"/>
     <use xlink:href="#DejaVuSans-72" transform="translate(63.476562 0)"/>
     <use xlink:href="#DejaVuSans-6f" transform="translate(102.339844 0)"/>
     <use xlink:href="#DejaVuSans-78" transform="translate(160.396484 0)"/>
     <use xlink:href="#DejaVuSans-79" transform="translate(219.576172 0)"/>
     <use xlink:href="#DejaVuSans-5f" transform="translate(278.755859 0)"/>
     <use xlink:href="#DejaVuSans-66" transform="translate(328.755859 0)"/>
     <use xlink:href="#DejaVuSans-6c" transform="translate(363.960938 0)"/>
     <use xlink:href="#DejaVuSans-6f" transform="translate(391.744141 0)"/>
     <use xlink:href="#DejaVuSans-6f" transform="translate(452.925781 0)"/>
     <use xlink:href="#DejaVuSans-72" transform="translate(514.107422 0)"/>
     <use xlink:href="#DejaVuSans-20" transform="translate(555.220703 0)"/>
     <use xlink:href="#DejaVuSans-70" transform="translate(587.007812 0)"/>
     <use xlink:href="#DejaVuSans-65" transform="translate(650.484375 0)"/>
     <use xlink:href="#DejaVuSans-72" transform="translate(712.007812 0)"/>
     <use xlink:href="#DejaVuSans-2d" transform="translate(746.746094 0)"/>
     <use xlink:href="#DejaVuSans-73" transform="translate(782.830078 0)"/>
     <use xlink:href="#DejaVuSans-61" transform="translate(834.929688 0)"/>
     <use xlink:href="#DejaVuSans-6d" transform="translate(896.208984 0)"/>
     <use xlink:href="#DejaVuSans-70" transform="translate(993.621094 0)"/>
     <use xlink:href="#DejaVuSans-6c" transform="translate(1057.097656 0)"/>
     <use xlink:href="#DejaVuSans-65" transform="translate(1084.880859 0)"/>
    </g>
   </g>
  </g>
 </g>
 <defs>
  <clipPath id="pb340f251fb">
   <rect x="43.09" y="26.88" width="304.216254" height="147.05875"/>
  </clipPath>
 </defs>
</svg>
