<?xml version="1.0" encoding="utf-8" standalone="no"?>
<!DOCTYPE svg PUBLIC "-//W3C//DTD SVG 1.1//EN"
  "http://www.w3.org/Graphics/SVG/1.1/DTD/svg11.dtd">
<svg xmlns:xlink="http://www.w3.org/1999/xlink" width="360pt" height="216pt" viewBox="0 0 360 216" xmlns="http://www.w3.org/2000/svg" version="1.1">
 <metadata>
  <rdf:RDF xmlns:dc="http://purl.org/dc/elements/1.1/" xmlns:cc="http://creativecommons.org/ns#" xmlns:rdf="http://www.w3.org/1999/02/22-rdf-syntax-ns#">
   <cc:Work>
    <dc:type rdf:resource="http://purl.org/dc/dcmitype/StillImage"/>
    <dc:date>2025-12-29T20:07:09.043266</dc:date>
    <dc:format>image/svg+xml</dc:format>
    <dc:creator>
     <cc:Agent>
      <dc:title>Matplotlib v3.10.5, https://matplotlib.org/</dc:title>
     </cc:Agent>
    </dc:creator>
   </cc:Work>
  </rdf:RDF>
 </metadata>
 <defs>
  <style type="text/css">*{stroke-linejoin: round; stroke-linecap: butt}</style>
 </defs>
 <g id="figure_1">
  <g id="patch_1">
   <path d="M 0 216 
L 360 216 
L 360 0 
L 0 0 
z
" style="fill: #ffffff"/>
  </g>
  <g id="axes_1">
   <g id="patch_2">
    <path d="M 43.09 173.93875 
L 341.577666 173.93875 
L 341.577666 26.88 
L 43.09 26.88 
z
" style="fill: #ffffff"/>
   </g>
   <g id="patch_3">
    <path d="M 56.657621 173.93875 
L 61.180162 173.93875 
L 61.180162 173.804468 
L 56.657621 173.804468 
z
" clip-path="url(#pdf831dd55b)" style="fill: #1f77b4"/>
   </g>
   <g id="patch_4">
    <path d="M 61.180162 173.93875 
L 65.702702 173.93875 
L 65.702702 173.93875 
L 61.180162 173.93875 
z
" clip-path="url(#pdf831dd55b)" style="fill: #1f77b4"/>
   </g>
   <g id="patch_5">
    <path d="M 65.702702 173.93875 
L 70.225242 173.93875 
L 70.225242 173.93875 
L 65.702702 173.93875 
z
" clip-path="url(#pdf831dd55b)" style="fill: #1f77b4"/>
   </g>
   <g id="patch_6">
    <path d="M 70.225242 173.93875 
L 74.747783 173.93875 
L 74.747783 173.93875 
L 70.225242 173.93875 
z
" clip-path="url(#pdf831dd55b)" style="fill: #1f77b4"/>
   </g>
   <g id="patch_7">
    <path d="M 74.747783 173.93875 
L 79.270323 173.93875 
L 79.270323 173.93875 
L 74.747783 173.93875 
z
" clip-path="url(#pdf831dd55b)" style="fill: #1f77b4"/>
   </g>
   <g id="patch_8">
    <path d="M 79.270323 173.93875 
L 83.792864 173.93875 
L 83.792864 173.93875 
L 79.270323 173.93875 
z
" clip-path="url(#pdf831dd55b)" style="fill: #1f77b4"/>
   </g>
   <g id="patch_9">
    <path d="M 83.792864 173.93875 
L 88.315404 173.93875 
L 88.315404 173.93875 
L 83.792864 173.93875 
z
" clip-path="url(#pdf831dd55b)" style="fill: #1f77b4"/>
   </g>
   <g id="patch_10">
    <path d="M 88.315404 173.93875 
L 92.837944 173.93875 
L 92.837944 173.93875 
L 88.315404 173.93875 
z
" clip-path="url(#pdf831dd55b)" style="fill: #1f77b4"/>
   </g>
   <g id="patch_11">
    <path d="M 92.837944 173.93875 
L 97.360485 173.93875 
L 97.360485 173.93875 
L 92.837944 173.93875 
z
" clip-path="url(#pdf831dd55b)" style="fill: #1f77b4"/>
   </g>
   <g id="patch_12">
    <path d="M 97.360485 173.93875 
L 101.883025 173.93875 
L 101.883025 173.93875 
L 97.360485 173.93875 
z
" clip-path="url(#pdf831dd55b)" style="fill: #1f77b4"/>
   </g>
   <g id="patch_13">
    <path d="M 101.883025 173.93875 
L 106.405565 173.93875 
L 106.405565 173.93875 
L 101.883025 173.93875 
z
" clip-path="url(#pdf831dd55b)" style="fill: #1f77b4"/>
   </g>
   <g id="patch_14">
    <path d="M 106.405565 173.93875 
L 110.928106 173.93875 
L 110.928106 173.93875 
L 106.405565 173.93875 
z
" clip-path="url(#pdf831dd55b)" style="fill: #1f77b4"/>
   </g>
   <g id="patch_15">
    <path d="M 110.928106 173.93875 
L 115.450646 173.93875 
L 115.450646 173.93875 
L 110.928106 173.93875 
z
" clip-path="url(#pdf831dd55b)" style="fill: #1f77b4"/>
   </g>
   <g id="patch_16">
    <path d="M 115.450646 173.93875 
L 119.973187 173.93875 
L 119.973187 173.93875 
L 115.450646 173.93875 
z
" clip-path="url(#pdf831dd55b)" style="fill: #1f77b4"/>
   </g>
   <g id="patch_17">
    <path d="M 119.973187 173.93875 
L 124.495727 173.93875 
L 124.495727 173.93875 
L 119.973187 173.93875 
z
" clip-path="url(#pdf831dd55b)" style="fill: #1f77b4"/>
   </g>
   <g id="patch_18">
    <path d="M 124.495727 173.93875 
L 129.018267 173.93875 
L 129.018267 173.93875 
L 124.495727 173.93875 
z
" clip-path="url(#pdf831dd55b)" style="fill: #1f77b4"/>
   </g>
   <g id="patch_19">
    <path d="M 129.018267 173.93875 
L 133.540808 173.93875 
L 133.540808 173.93875 
L 129.018267 173.93875 
z
" clip-path="url(#pdf831dd55b)" style="fill: #1f77b4"/>
   </g>
   <g id="patch_20">
    <path d="M 133.540808 173.93875 
L 138.063348 173.93875 
L 138.063348 173.93875 
L 133.540808 173.93875 
z
" clip-path="url(#pdf831dd55b)" style="fill: #1f77b4"/>
   </g>
   <g id="patch_21">
    <path d="M 138.063348 173.93875 
L 142.585889 173.93875 
L 142.585889 173.93875 
L 138.063348 173.93875 
z
" clip-path="url(#pdf831dd55b)" style="fill: #1f77b4"/>
   </g>
   <g id="patch_22">
    <path d="M 142.585889 173.93875 
L 147.108429 173.93875 
L 147.108429 173.93875 
L 142.585889 173.93875 
z
" clip-path="url(#pdf831dd55b)" style="fill: #1f77b4"/>
   </g>
   <g id="patch_23">
    <path d="M 147.108429 173.93875 
L 151.630969 173.93875 
L 151.630969 173.93875 
L 147.108429 173.93875 
z
" clip-path="url(#pdf831dd55b)" style="fill: #1f77b4"/>
   </g>
   <g id="patch_24">
    <path d="M 151.630969 173.93875 
L 156.15351 173.93875 
L 156.15351 173.93875 
L 151.630969 173.93875 
z
" clip-path="url(#pdf831dd55b)" style="fill: #1f77b4"/>
   </g>
   <g id="patch_25">
    <path d="M 156.15351 173.93875 
L 160.67605 173.93875 
L 160.67605 173.93875 
L 156.15351 173.93875 
z
" clip-path="url(#pdf831dd55b)" style="fill: #1f77b4"/>
   </g>
   <g id="patch_26">
    <path d="M 160.67605 173.93875 
L 165.198591 173.93875 
L 165.198591 173.93875 
L 160.67605 173.93875 
z
" clip-path="url(#pdf831dd55b)" style="fill: #1f77b4"/>
   </g>
   <g id="patch_27">
    <path d="M 165.198591 173.93875 
L 169.721131 173.93875 
L 169.721131 173.93875 
L 165.198591 173.93875 
z
" clip-path="url(#pdf831dd55b)" style="fill: #1f77b4"/>
   </g>
   <g id="patch_28">
    <path d="M 169.721131 173.93875 
L 174.243671 173.93875 
L 174.243671 173.93875 
L 169.721131 173.93875 
z
" clip-path="url(#pdf831dd55b)" style="fill: #1f77b4"/>
   </g>
   <g id="patch_29">
    <path d="M 174.243671 173.93875 
L 178.766212 173.93875 
L 178.766212 173.93875 
L 174.243671 173.93875 
z
" clip-path="url(#pdf831dd55b)" style="fill: #1f77b4"/>
   </g>
   <g id="patch_30">
    <path d="M 178.766212 173.93875 
L 183.288752 173.93875 
L 183.288752 173.93875 
L 178.766212 173.93875 
z
" clip-path="url(#pdf831dd55b)" style="fill: #1f77b4"/>
   </g>
   <g id="patch_31">
    <path d="M 183.288752 173.93875 
L 187.811293 173.93875 
L 187.811293 173.93875 
L 183.288752 173.93875 
z
" clip-path="url(#pdf831dd55b)" style="fill: #1f77b4"/>
   </g>
   <g id="patch_32">
    <path d="M 187.811293 173.93875 
L 192.333833 173.93875 
L 192.333833 173.93875 
L 187.811293 173.93875 
z
" clip-path="url(#pdf831dd55b)" style="fill: #1f77b4"/>
   </g>
   <g id="patch_33">
    <path d="M 192.333833 173.93875 
L 196.856373 173.93875 
L 196.856373 173.93875 
L 192.333833 173.93875 
z
" clip-path="url(#pdf831dd55b)" style="fill: #1f77b4"/>
   </g>
   <g id="patch_34">
    <path d="M 196.856373 173.93875 
L 201.378914 173.93875 
L 201.378914 173.93875 
L 196.856373 173.93875 
z
" clip-path="url(#pdf831dd55b)" style="fill: #1f77b4"/>
   </g>
   <g id="patch_35">
    <path d="M 201.378914 173.93875 
L 205.901454 173.93875 
L 205.901454 173.93875 
L 201.378914 173.93875 
z
" clip-path="url(#pdf831dd55b)" style="fill: #1f77b4"/>
   </g>
   <g id="patch_36">
    <path d="M 205.901454 173.93875 
L 210.423994 173.93875 
L 210.423994 173.93875 
L 205.901454 173.93875 
z
" clip-path="url(#pdf831dd55b)" style="fill: #1f77b4"/>
   </g>
   <g id="patch_37">
    <path d="M 210.423994 173.93875 
L 214.946535 173.93875 
L 214.946535 173.93875 
L 210.423994 173.93875 
z
" clip-path="url(#pdf831dd55b)" style="fill: #1f77b4"/>
   </g>
   <g id="patch_38">
    <path d="M 214.946535 173.93875 
L 219.469075 173.93875 
L 219.469075 33.882798 
L 214.946535 33.882798 
z
" clip-path="url(#pdf831dd55b)" style="fill: #1f77b4"/>
   </g>
   <g id="patch_39">
    <path d="M 219.469075 173.93875 
L 223.991616 173.93875 
L 223.991616 46.773854 
L 219.469075 46.773854 
z
" clip-path="url(#pdf831dd55b)" style="fill: #1f77b4"/>
   </g>
   <g id="patch_40">
    <path d="M 223.991616 173.93875 
L 228.514156 173.93875 
L 228.514156 135.265582 
L 223.991616 135.265582 
z
" clip-path="url(#pdf831dd55b)" style="fill: #1f77b4"/>
   </g>
   <g id="patch_41">
    <path d="M 228.514156 173.93875 
L 233.036696 173.93875 
L 233.036696 167.761786 
L 228.514156 167.761786 
z
" clip-path="url(#pdf831dd55b)" style="fill: #1f77b4"/>
   </g>
   <g id="patch_42">
    <path d="M 233.036696 173.93875 
L 237.559237 173.93875 
L 237.559237 171.655959 
L 233.036696 171.655959 
z
" clip-path="url(#pdf831dd55b)" style="fill: #1f77b4"/>
   </g>
   <g id="patch_43">
    <path d="M 237.559237 173.93875 
L 242.081777 173.93875 
L 242.081777 171.655959 
L 237.559237 171.655959 
z
" clip-path="url(#pdf831dd55b)" style="fill: #1f77b4"/>
   </g>
   <g id="patch_44">
    <path d="M 242.081777 173.93875 
L 246.604318 173.93875 
L 246.604318 172.595932 
L 242.081777 172.595932 
z
" clip-path="url(#pdf831dd55b)" style="fill: #1f77b4"/>
   </g>
   <g id="patch_45">
    <path d="M 246.604318 173.93875 
L 251.126858 173.93875 
L 251.126858 172.327368 
L 246.604318 172.327368 
z
" clip-path="url(#pdf831dd55b)" style="fill: #1f77b4"/>
   </g>
   <g id="patch_46">
    <path d="M 251.126858 173.93875 
L 255.649398 173.93875 
L 255.649398 172.46165 
L 251.126858 172.46165 
z
" clip-path="url(#pdf831dd55b)" style="fill: #1f77b4"/>
   </g>
   <g id="patch_47">
    <path d="M 255.649398 173.93875 
L 260.171939 173.93875 
L 260.171939 173.401623 
L 255.649398 173.401623 
z
" clip-path="url(#pdf831dd55b)" style="fill: #1f77b4"/>
   </g>
   <g id="patch_48">
    <path d="M 260.171939 173.93875 
L 264.694479 173.93875 
L 264.694479 173.535904 
L 260.171939 173.535904 
z
" clip-path="url(#pdf831dd55b)" style="fill: #1f77b4"/>
   </g>
   <g id="patch_49">
    <path d="M 264.694479 173.93875 
L 269.21702 173.93875 
L 269.21702 172.998777 
L 264.694479 172.998777 
z
" clip-path="url(#pdf831dd55b)" style="fill: #1f77b4"/>
   </g>
   <g id="patch_50">
    <path d="M 269.21702 173.93875 
L 273.73956 173.93875 
L 273.73956 173.133059 
L 269.21702 173.133059 
z
" clip-path="url(#pdf831dd55b)" style="fill: #1f77b4"/>
   </g>
   <g id="patch_51">
    <path d="M 273.73956 173.93875 
L 278.2621 173.93875 
L 278.2621 173.133059 
L 273.73956 173.133059 
z
" clip-path="url(#pdf831dd55b)" style="fill: #1f77b4"/>
   </g>
   <g id="patch_52">
    <path d="M 278.2621 173.93875 
L 282.784641 173.93875 
L 282.784641 173.401623 
L 278.2621 173.401623 
z
" clip-path="url(#pdf831dd55b)" style="fill: #1f77b4"/>
   </g>
   <g id="patch_53">
    <path d="M 282.784641 173.93875 
L 287.307181 173.93875 
L 287.307181 173.267341 
L 282.784641 173.267341 
z
" clip-path="url(#pdf831dd55b)" style="fill: #1f77b4"/>
   </g>
   <g id="patch_54">
    <path d="M 287.307181 173.93875 
L 291.829721 173.93875 
L 291.829721 173.670186 
L 287.307181 173.670186 
z
" clip-path="url(#pdf831dd55b)" style="fill: #1f77b4"/>
   </g>
   <g id="patch_55">
    <path d="M 291.829721 173.93875 
L 296.352262 173.93875 
L 296.352262 173.670186 
L 291.829721 173.670186 
z
" clip-path="url(#pdf831dd55b)" style="fill: #1f77b4"/>
   </g>
   <g id="patch_56">
    <path d="M 296.352262 173.93875 
L 300.874802 173.93875 
L 300.874802 173.535904 
L 296.352262 173.535904 
z
" clip-path="url(#pdf831dd55b)" style="fill: #1f77b4"/>
   </g>
   <g id="patch_57">
    <path d="M 300.874802 173.93875 
L 305.397343 173.93875 
L 305.397343 173.670186 
L 300.874802 173.670186 
z
" clip-path="url(#pdf831dd55b)" style="fill: #1f77b4"/>
   </g>
   <g id="patch_58">
    <path d="M 305.397343 173.93875 
L 309.919883 173.93875 
L 309.919883 173.804468 
L 305.397343 173.804468 
z
" clip-path="url(#pdf831dd55b)" style="fill: #1f77b4"/>
   </g>
   <g id="patch_59">
    <path d="M 309.919883 173.93875 
L 314.442423 173.93875 
L 314.442423 173.804468 
L 309.919883 173.804468 
z
" clip-path="url(#pdf831dd55b)" style="fill: #1f77b4"/>
   </g>
   <g id="patch_60">
    <path d="M 314.442423 173.93875 
L 318.964964 173.93875 
L 318.964964 173.804468 
L 314.442423 173.804468 
z
" clip-path="url(#pdf831dd55b)" style="fill: #1f77b4"/>
   </g>
   <g id="patch_61">
    <path d="M 318.964964 173.93875 
L 323.487504 173.93875 
L 323.487504 173.93875 
L 318.964964 173.93875 
z
" clip-path="url(#pdf831dd55b)" style="fill: #1f77b4"/>
   </g>
   <g id="patch_62">
    <path d="M 323.487504 173.93875 
L 328.010045 173.93875 
L 328.010045 173.804468 
L 323.487504 173.804468 
z
" clip-path="url(#pdf831dd55b)" style="fill: #1f77b4"/>
   </g>
   <g id="matplotlib.axis_1">
    <g id="xtick_1">
     <g id="line2d_1">
      <path d="M 56.657621 173.93875 
L 56.657621 26.88 
" clip-path="url(#pdf831dd55b)" style="fill: none; stroke: #b0b0b0; stroke-opacity: 0.2; stroke-width: 0.8; stroke-linecap: square"/>
     </g>
     <g id="line2d_2">
      <defs>
       <path id="me967e37f1e" d="M 0 0 
L 0 3.5 
" style="stroke: #000000; stroke-width: 0.8"/>
      </defs>
      <g>
       <use xlink:href="#me967e37f1e" x="56.657621" y="173.93875" style="stroke: #000000; stroke-width: 0.8"/>
      </g>
     </g>
     <g id="text_1">
      <!-- 0.0 -->
      <g transform="translate(48.706059 188.537188) scale(0.1 -0.1)">
       <defs>
        <path id="DejaVuSans-30" d="M 2034 4250 
Q 1547 4250 1301 3770 
Q 1056 3291 1056 2328 
Q 1056 1369 1301 889 
Q 1547 409 2034 409 
Q 2525 409 2770 889 
Q 3016 1369 3016 2328 
Q 3016 3291 2770 3770 
Q 2525 4250 2034 4250 
z
M 2034 4750 
Q 2819 4750 3233 4129 
Q 3647 3509 3647 2328 
Q 3647 1150 3233 529 
Q 2819 -91 2034 -91 
Q 1250 -91 836 529 
Q 422 1150 422 2328 
Q 422 3509 836 4129 
Q 1250 4750 2034 4750 
z
" transform="scale(0.015625)"/>
        <path id="DejaVuSans-2e" d="M 684 794 
L 1344 794 
L 1344 0 
L 684 0 
L 684 794 
z
" transform="scale(0.015625)"/>
       </defs>
       <use xlink:href="#DejaVuSans-30"/>
       <use xlink:href="#DejaVuSans-2e" transform="translate(63.623047 0)"/>
       <use xlink:href="#DejaVuSans-30" transform="translate(95.410156 0)"/>
      </g>
     </g>
    </g>
    <g id="xtick_2">
     <g id="line2d_3">
      <path d="M 104.091219 173.93875 
L 104.091219 26.88 
" clip-path="url(#pdf831dd55b)" style="fill: none; stroke: #b0b0b0; stroke-opacity: 0.2; stroke-width: 0.8; stroke-linecap: square"/>
     </g>
     <g id="line2d_4">
      <g>
       <use xlink:href="#me967e37f1e" x="104.091219" y="173.93875" style="stroke: #000000; stroke-width: 0.8"/>
      </g>
     </g>
     <g id="text_2">
      <!-- 0.2 -->
      <g transform="translate(96.139657 188.537188) scale(0.1 -0.1)">
       <defs>
        <path id="DejaVuSans-32" d="M 1228 531 
L 3431 531 
L 3431 0 
L 469 0 
L 469 531 
Q 828 903 1448 1529 
Q 2069 2156 2228 2338 
Q 2531 2678 2651 2914 
Q 2772 3150 2772 3378 
Q 2772 3750 2511 3984 
Q 2250 4219 1831 4219 
Q 1534 4219 1204 4116 
Q 875 4013 500 3803 
L 500 4441 
Q 881 4594 1212 4672 
Q 1544 4750 1819 4750 
Q 2544 4750 2975 4387 
Q 3406 4025 3406 3419 
Q 3406 3131 3298 2873 
Q 3191 2616 2906 2266 
Q 2828 2175 2409 1742 
Q 1991 1309 1228 531 
z
" transform="scale(0.015625)"/>
       </defs>
       <use xlink:href="#DejaVuSans-30"/>
       <use xlink:href="#DejaVuSans-2e" transform="translate(63.623047 0)"/>
       <use xlink:href="#DejaVuSans-32" transform="translate(95.410156 0)"/>
      </g>
     </g>
    </g>
    <g id="xtick_3">
     <g id="line2d_5">
      <path d="M 151.524817 173.93875 
L 151.524817 26.88 
" clip-path="url(#pdf831dd55b)" style="fill: none; stroke: #b0b0b0; stroke-opacity: 0.2; stroke-width: 0.8; stroke-linecap: square"/>
     </g>
     <g id="line2d_6">
      <g>
       <use xlink:href="#me967e37f1e" x="151.524817" y="173.93875" style="stroke: #000000; stroke-width: 0.8"/>
      </g>
     </g>
     <g id="text_3">
      <!-- 0.4 -->
      <g transform="translate(143.573254 188.537188) scale(0.1 -0.1)">
       <defs>
        <path id="DejaVuSans-34" d="M 2419 4116 
L 825 1625 
L 2419 1625 
L 2419 4116 
z
M 2253 4666 
L 3047 4666 
L 3047 1625 
L 3713 1625 
L 3713 1100 
L 3047 1100 
L 3047 0 
L 2419 0 
L 2419 1100 
L 313 1100 
L 313 1709 
L 2253 4666 
z
" transform="scale(0.015625)"/>
       </defs>
       <use xlink:href="#DejaVuSans-30"/>
       <use xlink:href="#DejaVuSans-2e" transform="translate(63.623047 0)"/>
       <use xlink:href="#DejaVuSans-34" transform="translate(95.410156 0)"/>
      </g>
     </g>
    </g>
    <g id="xtick_4">
     <g id="line2d_7">
      <path d="M 198.958415 173.93875 
L 198.958415 26.88 
" clip-path="url(#pdf831dd55b)" style="fill: none; stroke: #b0b0b0; stroke-opacity: 0.2; stroke-width: 0.8; stroke-linecap: square"/>
     </g>
     <g id="line2d_8">
      <g>
       <use xlink:href="#me967e37f1e" x="198.958415" y="173.93875" style="stroke: #000000; stroke-width: 0.8"/>
      </g>
     </g>
     <g id="text_4">
      <!-- 0.6 -->
      <g transform="translate(191.006852 188.537188) scale(0.1 -0.1)">
       <defs>
        <path id="DejaVuSans-36" d="M 2113 2584 
Q 1688 2584 1439 2293 
Q 1191 2003 1191 1497 
Q 1191 994 1439 701 
Q 1688 409 2113 409 
Q 2538 409 2786 701 
Q 3034 994 3034 1497 
Q 3034 2003 2786 2293 
Q 2538 2584 2113 2584 
z
M 3366 4563 
L 3366 3988 
Q 3128 4100 2886 4159 
Q 2644 4219 2406 4219 
Q 1781 4219 1451 3797 
Q 1122 3375 1075 2522 
Q 1259 2794 1537 2939 
Q 1816 3084 2150 3084 
Q 2853 3084 3261 2657 
Q 3669 2231 3669 1497 
Q 3669 778 3244 343 
Q 2819 -91 2113 -91 
Q 1303 -91 875 529 
Q 447 1150 447 2328 
Q 447 3434 972 4092 
Q 1497 4750 2381 4750 
Q 2619 4750 2861 4703 
Q 3103 4656 3366 4563 
z
" transform="scale(0.015625)"/>
       </defs>
       <use xlink:href="#DejaVuSans-30"/>
       <use xlink:href="#DejaVuSans-2e" transform="translate(63.623047 0)"/>
       <use xlink:href="#DejaVuSans-36" transform="translate(95.410156 0)"/>
      </g>
     </g>
    </g>
    <g id="xtick_5">
     <g id="line2d_9">
      <path d="M 246.392013 173.93875 
L 246.392013 26.88 
" clip-path="url(#pdf831dd55b)" style="fill: none; stroke: #b0b0b0; stroke-opacity: 0.2; stroke-width: 0.8; stroke-linecap: square"/>
     </g>
     <g id="line2d_10">
      <g>
       <use xlink:href="#me967e37f1e" x="246.392013" y="173.93875" style="stroke: #000000; stroke-width: 0.8"/>
      </g>
     </g>
     <g id="text_5">
      <!-- 0.8 -->
      <g transform="translate(238.44045 188.537188) scale(0.1 -0.1)">
       <defs>
        <path id="DejaVuSans-38" d="M 2034 2216 
Q 1584 2216 1326 1975 
Q 1069 1734 1069 1313 
Q 1069 891 1326 650 
Q 1584 409 2034 409 
Q 2484 409 2743 651 
Q 3003 894 3003 1313 
Q 3003 1734 2745 1975 
Q 2488 2216 2034 2216 
z
M 1403 2484 
Q 997 2584 770 2862 
Q 544 3141 544 3541 
Q 544 4100 942 4425 
Q 1341 4750 2034 4750 
Q 2731 4750 3128 4425 
Q 3525 4100 3525 3541 
Q 3525 3141 3298 2862 
Q 3072 2584 2669 2484 
Q 3125 2378 3379 2068 
Q 3634 1759 3634 1313 
Q 3634 634 3220 271 
Q 2806 -91 2034 -91 
Q 1263 -91 848 271 
Q 434 634 434 1313 
Q 434 1759 690 2068 
Q 947 2378 1403 2484 
z
M 1172 3481 
Q 1172 3119 1398 2916 
Q 1625 2713 2034 2713 
Q 2441 2713 2670 2916 
Q 2900 3119 2900 3481 
Q 2900 3844 2670 4047 
Q 2441 4250 2034 4250 
Q 1625 4250 1398 4047 
Q 1172 3844 1172 3481 
z
" transform="scale(0.015625)"/>
       </defs>
       <use xlink:href="#DejaVuSans-30"/>
       <use xlink:href="#DejaVuSans-2e" transform="translate(63.623047 0)"/>
       <use xlink:href="#DejaVuSans-38" transform="translate(95.410156 0)"/>
      </g>
     </g>
    </g>
    <g id="xtick_6">
     <g id="line2d_11">
      <path d="M 293.825611 173.93875 
L 293.825611 26.88 
" clip-path="url(#pdf831dd55b)" style="fill: none; stroke: #b0b0b0; stroke-opacity: 0.2; stroke-width: 0.8; stroke-linecap: square"/>
     </g>
     <g id="line2d_12">
      <g>
       <use xlink:href="#me967e37f1e" x="293.825611" y="173.93875" style="stroke: #000000; stroke-width: 0.8"/>
      </g>
     </g>
     <g id="text_6">
      <!-- 1.0 -->
      <g transform="translate(285.874048 188.537188) scale(0.1 -0.1)">
       <defs>
        <path id="DejaVuSans-31" d="M 794 531 
L 1825 531 
L 1825 4091 
L 703 3866 
L 703 4441 
L 1819 4666 
L 2450 4666 
L 2450 531 
L 3481 531 
L 3481 0 
L 794 0 
L 794 531 
z
" transform="scale(0.015625)"/>
       </defs>
       <use xlink:href="#DejaVuSans-31"/>
       <use xlink:href="#DejaVuSans-2e" transform="translate(63.623047 0)"/>
       <use xlink:href="#DejaVuSans-30" transform="translate(95.410156 0)"/>
      </g>
     </g>
    </g>
    <g id="xtick_7">
     <g id="line2d_13">
      <path d="M 341.259209 173.93875 
L 341.259209 26.88 
" clip-path="url(#pdf831dd55b)" style="fill: none; stroke: #b0b0b0; stroke-opacity: 0.2; stroke-width: 0.8; stroke-linecap: square"/>
     </g>
     <g id="line2d_14">
      <g>
       <use xlink:href="#me967e37f1e" x="341.259209" y="173.93875" style="stroke: #000000; stroke-width: 0.8"/>
      </g>
     </g>
     <g id="text_7">
      <!-- 1.2 -->
      <g transform="translate(333.307646 188.537188) scale(0.1 -0.1)">
       <use xlink:href="#DejaVuSans-31"/>
       <use xlink:href="#DejaVuSans-2e" transform="translate(63.623047 0)"/>
       <use xlink:href="#DejaVuSans-32" transform="translate(95.410156 0)"/>
      </g>
     </g>
    </g>
    <g id="text_8">
     <!-- prior_bnd per-sample -->
     <g transform="translate(139.023677 202.215313) scale(0.1 -0.1)">
      <defs>
       <path id="DejaVuSans-70" d="M 1159 525 
L 1159 -1331 
L 581 -1331 
L 581 3500 
L 1159 3500 
L 1159 2969 
Q 1341 3281 1617 3432 
Q 1894 3584 2278 3584 
Q 2916 3584 3314 3078 
Q 3713 2572 3713 1747 
Q 3713 922 3314 415 
Q 2916 -91 2278 -91 
Q 1894 -91 1617 61 
Q 1341 213 1159 525 
z
M 3116 1747 
Q 3116 2381 2855 2742 
Q 2594 3103 2138 3103 
Q 1681 3103 1420 2742 
Q 1159 2381 1159 1747 
Q 1159 1113 1420 752 
Q 1681 391 2138 391 
Q 2594 391 2855 752 
Q 3116 1113 3116 1747 
z
" transform="scale(0.015625)"/>
       <path id="DejaVuSans-72" d="M 2631 2963 
Q 2534 3019 2420 3045 
Q 2306 3072 2169 3072 
Q 1681 3072 1420 2755 
Q 1159 2438 1159 1844 
L 1159 0 
L 581 0 
L 581 3500 
L 1159 3500 
L 1159 2956 
Q 1341 3275 1631 3429 
Q 1922 3584 2338 3584 
Q 2397 3584 2469 3576 
Q 2541 3569 2628 3553 
L 2631 2963 
z
" transform="scale(0.015625)"/>
       <path id="DejaVuSans-69" d="M 603 3500 
L 1178 3500 
L 1178 0 
L 603 0 
L 603 3500 
z
M 603 4863 
L 1178 4863 
L 1178 4134 
L 603 4134 
L 603 4863 
z
" transform="scale(0.015625)"/>
       <path id="DejaVuSans-6f" d="M 1959 3097 
Q 1497 3097 1228 2736 
Q 959 2375 959 1747 
Q 959 1119 1226 758 
Q 1494 397 1959 397 
Q 2419 397 2687 759 
Q 2956 1122 2956 1747 
Q 2956 2369 2687 2733 
Q 2419 3097 1959 3097 
z
M 1959 3584 
Q 2709 3584 3137 3096 
Q 3566 2609 3566 1747 
Q 3566 888 3137 398 
Q 2709 -91 1959 -91 
Q 1206 -91 779 398 
Q 353 888 353 1747 
Q 353 2609 779 3096 
Q 1206 3584 1959 3584 
z
" transform="scale(0.015625)"/>
       <path id="DejaVuSans-5f" d="M 3263 -1063 
L 3263 -1509 
L -63 -1509 
L -63 -1063 
L 3263 -1063 
z
" transform="scale(0.015625)"/>
       <path id="DejaVuSans-62" d="M 3116 1747 
Q 3116 2381 2855 2742 
Q 2594 3103 2138 3103 
Q 1681 3103 1420 2742 
Q 1159 2381 1159 1747 
Q 1159 1113 1420 752 
Q 1681 391 2138 391 
Q 2594 391 2855 752 
Q 3116 1113 3116 1747 
z
M 1159 2969 
Q 1341 3281 1617 3432 
Q 1894 3584 2278 3584 
Q 2916 3584 3314 3078 
Q 3713 2572 3713 1747 
Q 3713 922 3314 415 
Q 2916 -91 2278 -91 
Q 1894 -91 1617 61 
Q 1341 213 1159 525 
L 1159 0 
L 581 0 
L 581 4863 
L 1159 4863 
L 1159 2969 
z
" transform="scale(0.015625)"/>
       <path id="DejaVuSans-6e" d="M 3513 2113 
L 3513 0 
L 2938 0 
L 2938 2094 
Q 2938 2591 2744 2837 
Q 2550 3084 2163 3084 
Q 1697 3084 1428 2787 
Q 1159 2491 1159 1978 
L 1159 0 
L 581 0 
L 581 3500 
L 1159 3500 
L 1159 2956 
Q 1366 3272 1645 3428 
Q 1925 3584 2291 3584 
Q 2894 3584 3203 3211 
Q 3513 2838 3513 2113 
z
" transform="scale(0.015625)"/>
       <path id="DejaVuSans-64" d="M 2906 2969 
L 2906 4863 
L 3481 4863 
L 3481 0 
L 2906 0 
L 2906 525 
Q 2725 213 2448 61 
Q 2172 -91 1784 -91 
Q 1150 -91 751 415 
Q 353 922 353 1747 
Q 353 2572 751 3078 
Q 1150 3584 1784 3584 
Q 2172 3584 2448 3432 
Q 2725 3281 2906 2969 
z
M 947 1747 
Q 947 1113 1208 752 
Q 1469 391 1925 391 
Q 2381 391 2643 752 
Q 2906 1113 2906 1747 
Q 2906 2381 2643 2742 
Q 2381 3103 1925 3103 
Q 1469 3103 1208 2742 
Q 947 2381 947 1747 
z
" transform="scale(0.015625)"/>
       <path id="DejaVuSans-20" transform="scale(0.015625)"/>
       <path id="DejaVuSans-65" d="M 3597 1894 
L 3597 1613 
L 953 1613 
Q 991 1019 1311 708 
Q 1631 397 2203 397 
Q 2534 397 2845 478 
Q 3156 559 3463 722 
L 3463 178 
Q 3153 47 2828 -22 
Q 2503 -91 2169 -91 
Q 1331 -91 842 396 
Q 353 884 353 1716 
Q 353 2575 817 3079 
Q 1281 3584 2069 3584 
Q 2775 3584 3186 3129 
Q 3597 2675 3597 1894 
z
M 3022 2063 
Q 3016 2534 2758 2815 
Q 2500 3097 2075 3097 
Q 1594 3097 1305 2825 
Q 1016 2553 972 2059 
L 3022 2063 
z
" transform="scale(0.015625)"/>
       <path id="DejaVuSans-2d" d="M 313 2009 
L 1997 2009 
L 1997 1497 
L 313 1497 
L 313 2009 
z
" transform="scale(0.015625)"/>
       <path id="DejaVuSans-73" d="M 2834 3397 
L 2834 2853 
Q 2591 2978 2328 3040 
Q 2066 3103 1784 3103 
Q 1356 3103 1142 2972 
Q 928 2841 928 2578 
Q 928 2378 1081 2264 
Q 1234 2150 1697 2047 
L 1894 2003 
Q 2506 1872 2764 1633 
Q 3022 1394 3022 966 
Q 3022 478 2636 193 
Q 2250 -91 1575 -91 
Q 1294 -91 989 -36 
Q 684 19 347 128 
L 347 722 
Q 666 556 975 473 
Q 1284 391 1588 391 
Q 1994 391 2212 530 
Q 2431 669 2431 922 
Q 2431 1156 2273 1281 
Q 2116 1406 1581 1522 
L 1381 1569 
Q 847 1681 609 1914 
Q 372 2147 372 2553 
Q 372 3047 722 3315 
Q 1072 3584 1716 3584 
Q 2034 3584 2315 3537 
Q 2597 3491 2834 3397 
z
" transform="scale(0.015625)"/>
       <path id="DejaVuSans-61" d="M 2194 1759 
Q 1497 1759 1228 1600 
Q 959 1441 959 1056 
Q 959 750 1161 570 
Q 1363 391 1709 391 
Q 2188 391 2477 730 
Q 2766 1069 2766 1631 
L 2766 1759 
L 2194 1759 
z
M 3341 1997 
L 3341 0 
L 2766 0 
L 2766 531 
Q 2569 213 2275 61 
Q 1981 -91 1556 -91 
Q 1019 -91 701 211 
Q 384 513 384 1019 
Q 384 1609 779 1909 
Q 1175 2209 1959 2209 
L 2766 2209 
L 2766 2266 
Q 2766 2663 2505 2880 
Q 2244 3097 1772 3097 
Q 1472 3097 1187 3025 
Q 903 2953 641 2809 
L 641 3341 
Q 956 3463 1253 3523 
Q 1550 3584 1831 3584 
Q 2591 3584 2966 3190 
Q 3341 2797 3341 1997 
z
" transform="scale(0.015625)"/>
       <path id="DejaVuSans-6d" d="M 3328 2828 
Q 3544 3216 3844 3400 
Q 4144 3584 4550 3584 
Q 5097 3584 5394 3201 
Q 5691 2819 5691 2113 
L 5691 0 
L 5113 0 
L 5113 2094 
Q 5113 2597 4934 2840 
Q 4756 3084 4391 3084 
Q 3944 3084 3684 2787 
Q 3425 2491 3425 1978 
L 3425 0 
L 2847 0 
L 2847 2094 
Q 2847 2600 2669 2842 
Q 2491 3084 2119 3084 
Q 1678 3084 1418 2786 
Q 1159 2488 1159 1978 
L 1159 0 
L 581 0 
L 581 3500 
L 1159 3500 
L 1159 2956 
Q 1356 3278 1631 3431 
Q 1906 3584 2284 3584 
Q 2666 3584 2933 3390 
Q 3200 3197 3328 2828 
z
" transform="scale(0.015625)"/>
       <path id="DejaVuSans-6c" d="M 603 4863 
L 1178 4863 
L 1178 0 
L 603 0 
L 603 4863 
z
" transform="scale(0.015625)"/>
      </defs>
      <use xlink:href="#DejaVuSans-70"/>
      <use xlink:href="#DejaVuSans-72" transform="translate(63.476562 0)"/>
      <use xlink:href="#DejaVuSans-69" transform="translate(104.589844 0)"/>
      <use xlink:href="#DejaVuSans-6f" transform="translate(132.373047 0)"/>
      <use xlink:href="#DejaVuSans-72" transform="translate(193.554688 0)"/>
      <use xlink:href="#DejaVuSans-5f" transform="translate(234.667969 0)"/>
      <use xlink:href="#DejaVuSans-62" transform="translate(284.667969 0)"/>
      <use xlink:href="#DejaVuSans-6e" transform="translate(348.144531 0)"/>
      <use xlink:href="#DejaVuSans-64" transform="translate(411.523438 0)"/>
      <use xlink:href="#DejaVuSans-20" transform="translate(475 0)"/>
      <use xlink:href="#DejaVuSans-70" transform="translate(506.787109 0)"/>
      <use xlink:href="#DejaVuSans-65" transform="translate(570.263672 0)"/>
      <use xlink:href="#DejaVuSans-72" transform="translate(631.787109 0)"/>
      <use xlink:href="#DejaVuSans-2d" transform="translate(666.525391 0)"/>
      <use xlink:href="#DejaVuSans-73" transform="translate(702.609375 0)"/>
      <use xlink:href="#DejaVuSans-61" transform="translate(754.708984 0)"/>
      <use xlink:href="#DejaVuSans-6d" transform="translate(815.988281 0)"/>
      <use xlink:href="#DejaVuSans-70" transform="translate(913.400391 0)"/>
      <use xlink:href="#DejaVuSans-6c" transform="translate(976.876953 0)"/>
      <use xlink:href="#DejaVuSans-65" transform="translate(1004.660156 0)"/>
     </g>
    </g>
   </g>
   <g id="matplotlib.axis_2">
    <g id="ytick_1">
     <g id="line2d_15">
      <path d="M 43.09 173.93875 
L 341.577666 173.93875 
" clip-path="url(#pdf831dd55b)" style="fill: none; stroke: #b0b0b0; stroke-opacity: 0.2; stroke-width: 0.8; stroke-linecap: square"/>
     </g>
     <g id="line2d_16">
      <defs>
       <path id="m4be0426492" d="M 0 0 
L -3.5 0 
" style="stroke: #000000; stroke-width: 0.8"/>
      </defs>
      <g>
       <use xlink:href="#m4be0426492" x="43.09" y="173.93875" style="stroke: #000000; stroke-width: 0.8"/>
      </g>
     </g>
     <g id="text_9">
      <!-- 0 -->
      <g transform="translate(29.7275 177.737969) scale(0.1 -0.1)">
       <use xlink:href="#DejaVuSans-30"/>
      </g>
     </g>
    </g>
    <g id="ytick_2">
     <g id="line2d_17">
      <path d="M 43.09 147.082383 
L 341.577666 147.082383 
" clip-path="url(#pdf831dd55b)" style="fill: none; stroke: #b0b0b0; stroke-opacity: 0.2; stroke-width: 0.8; stroke-linecap: square"/>
     </g>
     <g id="line2d_18">
      <g>
       <use xlink:href="#m4be0426492" x="43.09" y="147.082383" style="stroke: #000000; stroke-width: 0.8"/>
      </g>
     </g>
     <g id="text_10">
      <!-- 200 -->
      <g transform="translate(17.0025 150.881602) scale(0.1 -0.1)">
       <use xlink:href="#DejaVuSans-32"/>
       <use xlink:href="#DejaVuSans-30" transform="translate(63.623047 0)"/>
       <use xlink:href="#DejaVuSans-30" transform="translate(127.246094 0)"/>
      </g>
     </g>
    </g>
    <g id="ytick_3">
     <g id="line2d_19">
      <path d="M 43.09 120.226017 
L 341.577666 120.226017 
" clip-path="url(#pdf831dd55b)" style="fill: none; stroke: #b0b0b0; stroke-opacity: 0.2; stroke-width: 0.8; stroke-linecap: square"/>
     </g>
     <g id="line2d_20">
      <g>
       <use xlink:href="#m4be0426492" x="43.09" y="120.226017" style="stroke: #000000; stroke-width: 0.8"/>
      </g>
     </g>
     <g id="text_11">
      <!-- 400 -->
      <g transform="translate(17.0025 124.025235) scale(0.1 -0.1)">
       <use xlink:href="#DejaVuSans-34"/>
       <use xlink:href="#DejaVuSans-30" transform="translate(63.623047 0)"/>
       <use xlink:href="#DejaVuSans-30" transform="translate(127.246094 0)"/>
      </g>
     </g>
    </g>
    <g id="ytick_4">
     <g id="line2d_21">
      <path d="M 43.09 93.36965 
L 341.577666 93.36965 
" clip-path="url(#pdf831dd55b)" style="fill: none; stroke: #b0b0b0; stroke-opacity: 0.2; stroke-width: 0.8; stroke-linecap: square"/>
     </g>
     <g id="line2d_22">
      <g>
       <use xlink:href="#m4be0426492" x="43.09" y="93.36965" style="stroke: #000000; stroke-width: 0.8"/>
      </g>
     </g>
     <g id="text_12">
      <!-- 600 -->
      <g transform="translate(17.0025 97.168869) scale(0.1 -0.1)">
       <use xlink:href="#DejaVuSans-36"/>
       <use xlink:href="#DejaVuSans-30" transform="translate(63.623047 0)"/>
       <use xlink:href="#DejaVuSans-30" transform="translate(127.246094 0)"/>
      </g>
     </g>
    </g>
    <g id="ytick_5">
     <g id="line2d_23">
      <path d="M 43.09 66.513283 
L 341.577666 66.513283 
" clip-path="url(#pdf831dd55b)" style="fill: none; stroke: #b0b0b0; stroke-opacity: 0.2; stroke-width: 0.8; stroke-linecap: square"/>
     </g>
     <g id="line2d_24">
      <g>
       <use xlink:href="#m4be0426492" x="43.09" y="66.513283" style="stroke: #000000; stroke-width: 0.8"/>
      </g>
     </g>
     <g id="text_13">
      <!-- 800 -->
      <g transform="translate(17.0025 70.312502) scale(0.1 -0.1)">
       <use xlink:href="#DejaVuSans-38"/>
       <use xlink:href="#DejaVuSans-30" transform="translate(63.623047 0)"/>
       <use xlink:href="#DejaVuSans-30" transform="translate(127.246094 0)"/>
      </g>
     </g>
    </g>
    <g id="ytick_6">
     <g id="line2d_25">
      <path d="M 43.09 39.656916 
L 341.577666 39.656916 
" clip-path="url(#pdf831dd55b)" style="fill: none; stroke: #b0b0b0; stroke-opacity: 0.2; stroke-width: 0.8; stroke-linecap: square"/>
     </g>
     <g id="line2d_26">
      <g>
       <use xlink:href="#m4be0426492" x="43.09" y="39.656916" style="stroke: #000000; stroke-width: 0.8"/>
      </g>
     </g>
     <g id="text_14">
      <!-- 1000 -->
      <g transform="translate(10.64 43.456135) scale(0.1 -0.1)">
       <use xlink:href="#DejaVuSans-31"/>
       <use xlink:href="#DejaVuSans-30" transform="translate(63.623047 0)"/>
       <use xlink:href="#DejaVuSans-30" transform="translate(127.246094 0)"/>
       <use xlink:href="#DejaVuSans-30" transform="translate(190.869141 0)"/>
      </g>
     </g>
    </g>
   </g>
   <g id="patch_63">
    <path d="M 43.09 173.93875 
L 43.09 26.88 
" style="fill: none; stroke: #000000; stroke-width: 0.8; stroke-linejoin: miter; stroke-linecap: square"/>
   </g>
   <g id="patch_64">
    <path d="M 341.577666 173.93875 
L 341.577666 26.88 
" style="fill: none; stroke: #000000; stroke-width: 0.8; stroke-linejoin: miter; stroke-linecap: square"/>
   </g>
   <g id="patch_65">
    <path d="M 43.09 173.93875 
L 341.577666 173.93875 
" style="fill: none; stroke: #000000; stroke-width: 0.8; stroke-linejoin: miter; stroke-linecap: square"/>
   </g>
   <g id="patch_66">
    <path d="M 43.09 26.88 
L 341.577666 26.88 
" style="fill: none; stroke: #000000; stroke-width: 0.8; stroke-linejoin: miter; stroke-linecap: square"/>
   </g>
   <g id="text_15">
    <!-- prior_bnd per-sample -->
    <g transform="translate(128.361645 20.88) scale(0.12 -0.12)">
     <use xlink:href="#DejaVuSans-70"/>
     <use xlink:href="#DejaVuSans-72" transform="translate(63.476562 0)"/>
     <use xlink:href="#DejaVuSans-69" transform="translate(104.589844 0)"/>
     <use xlink:href="#DejaVuSans-6f" transform="translate(132.373047 0)"/>
     <use xlink:href="#DejaVuSans-72" transform="translate(193.554688 0)"/>
     <use xlink:href="#DejaVuSans-5f" transform="translate(234.667969 0)"/>
     <use xlink:href="#DejaVuSans-62" transform="translate(284.667969 0)"/>
     <use xlink:href="#DejaVuSans-6e" transform="translate(348.144531 0)"/>
     <use xlink:href="#DejaVuSans-64" transform="translate(411.523438 0)"/>
     <use xlink:href="#DejaVuSans-20" transform="translate(475 0)"/>
     <use xlink:href="#DejaVuSans-70" transform="translate(506.787109 0)"/>
     <use xlink:href="#DejaVuSans-65" transform="translate(570.263672 0)"/>
     <use xlink:href="#DejaVuSans-72" transform="translate(631.787109 0)"/>
     <use xlink:href="#DejaVuSans-2d" transform="translate(666.525391 0)"/>
     <use xlink:href="#DejaVuSans-73" transform="translate(702.609375 0)"/>
     <use xlink:href="#DejaVuSans-61" transform="translate(754.708984 0)"/>
     <use xlink:href="#DejaVuSans-6d" transform="translate(815.988281 0)"/>
     <use xlink:href="#DejaVuSans-70" transform="translate(913.400391 0)"/>
     <use xlink:href="#DejaVuSans-6c" transform="translate(976.876953 0)"/>
     <use xlink:href="#DejaVuSans-65" transform="translate(1004.660156 0)"/>
    </g>
   </g>
  </g>
 </g>
 <defs>
  <clipPath id="pdf831dd55b">
   <rect x="43.09" y="26.88" width="298.487666" height="147.05875"/>
  </clipPath>
 </defs>
</svg>
