<?xml version="1.0" encoding="utf-8" standalone="no"?>
<!DOCTYPE svg PUBLIC "-//W3C//DTD SVG 1.1//EN"
  "http://www.w3.org/Graphics/SVG/1.1/DTD/svg11.dtd">
<svg xmlns:xlink="http://www.w3.org/1999/xlink" width="360pt" height="216pt" viewBox="0 0 360 216" xmlns="http://www.w3.org/2000/svg" version="1.1">
 <metadata>
  <rdf:RDF xmlns:dc="http://purl.org/dc/elements/1.1/" xmlns:cc="http://creativecommons.org/ns#" xmlns:rdf="http://www.w3.org/1999/02/22-rdf-syntax-ns#">
   <cc:Work>
    <dc:type rdf:resource="http://purl.org/dc/dcmitype/StillImage"/>
    <dc:date>2025-12-29T20:07:09.143793</dc:date>
    <dc:format>image/svg+xml</dc:format>
    <dc:creator>
     <cc:Agent>
      <dc:title>Matplotlib v3.10.5, https://matplotlib.org/</dc:title>
     </cc:Agent>
    </dc:creator>
   </cc:Work>
  </rdf:RDF>
 </metadata>
 <defs>
  <style type="text/css">*{stroke-linejoin: round; stroke-linecap: butt}</style>
 </defs>
 <g id="figure_1">
  <g id="patch_1">
   <path d="M 0 216 
L 360 216 
L 360 0 
L 0 0 
z
" style="fill: #ffffff"/>
  </g>
  <g id="axes_1">
   <g id="patch_2">
    <path d="M 36.79 173.93875 
L 349.2 173.93875 
L 349.2 26.88 
L 36.79 26.88 
z
" style="fill: #ffffff"/>
   </g>
   <g id="patch_3">
    <path d="M 50.990455 173.93875 
L 55.723939 173.93875 
L 55.723939 159.786755 
L 50.990455 159.786755 
z
" clip-path="url(#pb34d963a69)" style="fill: #1f77b4"/>
   </g>
   <g id="patch_4">
    <path d="M 55.723939 173.93875 
L 60.457424 173.93875 
L 60.457424 108.546772 
L 55.723939 108.546772 
z
" clip-path="url(#pb34d963a69)" style="fill: #1f77b4"/>
   </g>
   <g id="patch_5">
    <path d="M 60.457424 173.93875 
L 65.190909 173.93875 
L 65.190909 45.106794 
L 60.457424 45.106794 
z
" clip-path="url(#pb34d963a69)" style="fill: #1f77b4"/>
   </g>
   <g id="patch_6">
    <path d="M 65.190909 173.93875 
L 69.924394 173.93875 
L 69.924394 36.810797 
L 65.190909 36.810797 
z
" clip-path="url(#pb34d963a69)" style="fill: #1f77b4"/>
   </g>
   <g id="patch_7">
    <path d="M 69.924394 173.93875 
L 74.657879 173.93875 
L 74.657879 33.882798 
L 69.924394 33.882798 
z
" clip-path="url(#pb34d963a69)" style="fill: #1f77b4"/>
   </g>
   <g id="patch_8">
    <path d="M 74.657879 173.93875 
L 79.391364 173.93875 
L 79.391364 47.058793 
L 74.657879 47.058793 
z
" clip-path="url(#pb34d963a69)" style="fill: #1f77b4"/>
   </g>
   <g id="patch_9">
    <path d="M 79.391364 173.93875 
L 84.124848 173.93875 
L 84.124848 84.63478 
L 79.391364 84.63478 
z
" clip-path="url(#pb34d963a69)" style="fill: #1f77b4"/>
   </g>
   <g id="patch_10">
    <path d="M 84.124848 173.93875 
L 88.858333 173.93875 
L 88.858333 101.714775 
L 84.124848 101.714775 
z
" clip-path="url(#pb34d963a69)" style="fill: #1f77b4"/>
   </g>
   <g id="patch_11">
    <path d="M 88.858333 173.93875 
L 93.591818 173.93875 
L 93.591818 104.154774 
L 88.858333 104.154774 
z
" clip-path="url(#pb34d963a69)" style="fill: #1f77b4"/>
   </g>
   <g id="patch_12">
    <path d="M 93.591818 173.93875 
L 98.325303 173.93875 
L 98.325303 121.722768 
L 93.591818 121.722768 
z
" clip-path="url(#pb34d963a69)" style="fill: #1f77b4"/>
   </g>
   <g id="patch_13">
    <path d="M 98.325303 173.93875 
L 103.058788 173.93875 
L 103.058788 135.874763 
L 98.325303 135.874763 
z
" clip-path="url(#pb34d963a69)" style="fill: #1f77b4"/>
   </g>
   <g id="patch_14">
    <path d="M 103.058788 173.93875 
L 107.792273 173.93875 
L 107.792273 147.586759 
L 103.058788 147.586759 
z
" clip-path="url(#pb34d963a69)" style="fill: #1f77b4"/>
   </g>
   <g id="patch_15">
    <path d="M 107.792273 173.93875 
L 112.525758 173.93875 
L 112.525758 152.466757 
L 107.792273 152.466757 
z
" clip-path="url(#pb34d963a69)" style="fill: #1f77b4"/>
   </g>
   <g id="patch_16">
    <path d="M 112.525758 173.93875 
L 117.259242 173.93875 
L 117.259242 158.810755 
L 112.525758 158.810755 
z
" clip-path="url(#pb34d963a69)" style="fill: #1f77b4"/>
   </g>
   <g id="patch_17">
    <path d="M 117.259242 173.93875 
L 121.992727 173.93875 
L 121.992727 159.298755 
L 117.259242 159.298755 
z
" clip-path="url(#pb34d963a69)" style="fill: #1f77b4"/>
   </g>
   <g id="patch_18">
    <path d="M 121.992727 173.93875 
L 126.726212 173.93875 
L 126.726212 165.154753 
L 121.992727 165.154753 
z
" clip-path="url(#pb34d963a69)" style="fill: #1f77b4"/>
   </g>
   <g id="patch_19">
    <path d="M 126.726212 173.93875 
L 131.459697 173.93875 
L 131.459697 165.154753 
L 126.726212 165.154753 
z
" clip-path="url(#pb34d963a69)" style="fill: #1f77b4"/>
   </g>
   <g id="patch_20">
    <path d="M 131.459697 173.93875 
L 136.193182 173.93875 
L 136.193182 162.226754 
L 131.459697 162.226754 
z
" clip-path="url(#pb34d963a69)" style="fill: #1f77b4"/>
   </g>
   <g id="patch_21">
    <path d="M 136.193182 173.93875 
L 140.926667 173.93875 
L 140.926667 165.154753 
L 136.193182 165.154753 
z
" clip-path="url(#pb34d963a69)" style="fill: #1f77b4"/>
   </g>
   <g id="patch_22">
    <path d="M 140.926667 173.93875 
L 145.660152 173.93875 
L 145.660152 165.642753 
L 140.926667 165.642753 
z
" clip-path="url(#pb34d963a69)" style="fill: #1f77b4"/>
   </g>
   <g id="patch_23">
    <path d="M 145.660152 173.93875 
L 150.393636 173.93875 
L 150.393636 164.666753 
L 145.660152 164.666753 
z
" clip-path="url(#pb34d963a69)" style="fill: #1f77b4"/>
   </g>
   <g id="patch_24">
    <path d="M 150.393636 173.93875 
L 155.127121 173.93875 
L 155.127121 167.594752 
L 150.393636 167.594752 
z
" clip-path="url(#pb34d963a69)" style="fill: #1f77b4"/>
   </g>
   <g id="patch_25">
    <path d="M 155.127121 173.93875 
L 159.860606 173.93875 
L 159.860606 164.666753 
L 155.127121 164.666753 
z
" clip-path="url(#pb34d963a69)" style="fill: #1f77b4"/>
   </g>
   <g id="patch_26">
    <path d="M 159.860606 173.93875 
L 164.594091 173.93875 
L 164.594091 162.714754 
L 159.860606 162.714754 
z
" clip-path="url(#pb34d963a69)" style="fill: #1f77b4"/>
   </g>
   <g id="patch_27">
    <path d="M 164.594091 173.93875 
L 169.327576 173.93875 
L 169.327576 165.154753 
L 164.594091 165.154753 
z
" clip-path="url(#pb34d963a69)" style="fill: #1f77b4"/>
   </g>
   <g id="patch_28">
    <path d="M 169.327576 173.93875 
L 174.061061 173.93875 
L 174.061061 165.154753 
L 169.327576 165.154753 
z
" clip-path="url(#pb34d963a69)" style="fill: #1f77b4"/>
   </g>
   <g id="patch_29">
    <path d="M 174.061061 173.93875 
L 178.794545 173.93875 
L 178.794545 165.642753 
L 174.061061 165.642753 
z
" clip-path="url(#pb34d963a69)" style="fill: #1f77b4"/>
   </g>
   <g id="patch_30">
    <path d="M 178.794545 173.93875 
L 183.52803 173.93875 
L 183.52803 168.082752 
L 178.794545 168.082752 
z
" clip-path="url(#pb34d963a69)" style="fill: #1f77b4"/>
   </g>
   <g id="patch_31">
    <path d="M 183.52803 173.93875 
L 188.261515 173.93875 
L 188.261515 167.594752 
L 183.52803 167.594752 
z
" clip-path="url(#pb34d963a69)" style="fill: #1f77b4"/>
   </g>
   <g id="patch_32">
    <path d="M 188.261515 173.93875 
L 192.995 173.93875 
L 192.995 166.618752 
L 188.261515 166.618752 
z
" clip-path="url(#pb34d963a69)" style="fill: #1f77b4"/>
   </g>
   <g id="patch_33">
    <path d="M 192.995 173.93875 
L 197.728485 173.93875 
L 197.728485 166.618752 
L 192.995 166.618752 
z
" clip-path="url(#pb34d963a69)" style="fill: #1f77b4"/>
   </g>
   <g id="patch_34">
    <path d="M 197.728485 173.93875 
L 202.46197 173.93875 
L 202.46197 170.522751 
L 197.728485 170.522751 
z
" clip-path="url(#pb34d963a69)" style="fill: #1f77b4"/>
   </g>
   <g id="patch_35">
    <path d="M 202.46197 173.93875 
L 207.195455 173.93875 
L 207.195455 171.498751 
L 202.46197 171.498751 
z
" clip-path="url(#pb34d963a69)" style="fill: #1f77b4"/>
   </g>
   <g id="patch_36">
    <path d="M 207.195455 173.93875 
L 211.928939 173.93875 
L 211.928939 171.010751 
L 207.195455 171.010751 
z
" clip-path="url(#pb34d963a69)" style="fill: #1f77b4"/>
   </g>
   <g id="patch_37">
    <path d="M 211.928939 173.93875 
L 216.662424 173.93875 
L 216.662424 169.546751 
L 211.928939 169.546751 
z
" clip-path="url(#pb34d963a69)" style="fill: #1f77b4"/>
   </g>
   <g id="patch_38">
    <path d="M 216.662424 173.93875 
L 221.395909 173.93875 
L 221.395909 168.570752 
L 216.662424 168.570752 
z
" clip-path="url(#pb34d963a69)" style="fill: #1f77b4"/>
   </g>
   <g id="patch_39">
    <path d="M 221.395909 173.93875 
L 226.129394 173.93875 
L 226.129394 170.522751 
L 221.395909 170.522751 
z
" clip-path="url(#pb34d963a69)" style="fill: #1f77b4"/>
   </g>
   <g id="patch_40">
    <path d="M 226.129394 173.93875 
L 230.862879 173.93875 
L 230.862879 170.034751 
L 226.129394 170.034751 
z
" clip-path="url(#pb34d963a69)" style="fill: #1f77b4"/>
   </g>
   <g id="patch_41">
    <path d="M 230.862879 173.93875 
L 235.596364 173.93875 
L 235.596364 169.546751 
L 230.862879 169.546751 
z
" clip-path="url(#pb34d963a69)" style="fill: #1f77b4"/>
   </g>
   <g id="patch_42">
    <path d="M 235.596364 173.93875 
L 240.329848 173.93875 
L 240.329848 171.986751 
L 235.596364 171.986751 
z
" clip-path="url(#pb34d963a69)" style="fill: #1f77b4"/>
   </g>
   <g id="patch_43">
    <path d="M 240.329848 173.93875 
L 245.063333 173.93875 
L 245.063333 170.522751 
L 240.329848 170.522751 
z
" clip-path="url(#pb34d963a69)" style="fill: #1f77b4"/>
   </g>
   <g id="patch_44">
    <path d="M 245.063333 173.93875 
L 249.796818 173.93875 
L 249.796818 172.96275 
L 245.063333 172.96275 
z
" clip-path="url(#pb34d963a69)" style="fill: #1f77b4"/>
   </g>
   <g id="patch_45">
    <path d="M 249.796818 173.93875 
L 254.530303 173.93875 
L 254.530303 172.47475 
L 249.796818 172.47475 
z
" clip-path="url(#pb34d963a69)" style="fill: #1f77b4"/>
   </g>
   <g id="patch_46">
    <path d="M 254.530303 173.93875 
L 259.263788 173.93875 
L 259.263788 172.96275 
L 254.530303 172.96275 
z
" clip-path="url(#pb34d963a69)" style="fill: #1f77b4"/>
   </g>
   <g id="patch_47">
    <path d="M 259.263788 173.93875 
L 263.997273 173.93875 
L 263.997273 172.96275 
L 259.263788 172.96275 
z
" clip-path="url(#pb34d963a69)" style="fill: #1f77b4"/>
   </g>
   <g id="patch_48">
    <path d="M 263.997273 173.93875 
L 268.730758 173.93875 
L 268.730758 172.96275 
L 263.997273 172.96275 
z
" clip-path="url(#pb34d963a69)" style="fill: #1f77b4"/>
   </g>
   <g id="patch_49">
    <path d="M 268.730758 173.93875 
L 273.464242 173.93875 
L 273.464242 173.93875 
L 268.730758 173.93875 
z
" clip-path="url(#pb34d963a69)" style="fill: #1f77b4"/>
   </g>
   <g id="patch_50">
    <path d="M 273.464242 173.93875 
L 278.197727 173.93875 
L 278.197727 173.45075 
L 273.464242 173.45075 
z
" clip-path="url(#pb34d963a69)" style="fill: #1f77b4"/>
   </g>
   <g id="patch_51">
    <path d="M 278.197727 173.93875 
L 282.931212 173.93875 
L 282.931212 173.45075 
L 278.197727 173.45075 
z
" clip-path="url(#pb34d963a69)" style="fill: #1f77b4"/>
   </g>
   <g id="patch_52">
    <path d="M 282.931212 173.93875 
L 287.664697 173.93875 
L 287.664697 173.93875 
L 282.931212 173.93875 
z
" clip-path="url(#pb34d963a69)" style="fill: #1f77b4"/>
   </g>
   <g id="patch_53">
    <path d="M 287.664697 173.93875 
L 292.398182 173.93875 
L 292.398182 173.45075 
L 287.664697 173.45075 
z
" clip-path="url(#pb34d963a69)" style="fill: #1f77b4"/>
   </g>
   <g id="patch_54">
    <path d="M 292.398182 173.93875 
L 297.131667 173.93875 
L 297.131667 173.93875 
L 292.398182 173.93875 
z
" clip-path="url(#pb34d963a69)" style="fill: #1f77b4"/>
   </g>
   <g id="patch_55">
    <path d="M 297.131667 173.93875 
L 301.865152 173.93875 
L 301.865152 173.93875 
L 297.131667 173.93875 
z
" clip-path="url(#pb34d963a69)" style="fill: #1f77b4"/>
   </g>
   <g id="patch_56">
    <path d="M 301.865152 173.93875 
L 306.598636 173.93875 
L 306.598636 173.93875 
L 301.865152 173.93875 
z
" clip-path="url(#pb34d963a69)" style="fill: #1f77b4"/>
   </g>
   <g id="patch_57">
    <path d="M 306.598636 173.93875 
L 311.332121 173.93875 
L 311.332121 173.45075 
L 306.598636 173.45075 
z
" clip-path="url(#pb34d963a69)" style="fill: #1f77b4"/>
   </g>
   <g id="patch_58">
    <path d="M 311.332121 173.93875 
L 316.065606 173.93875 
L 316.065606 173.93875 
L 311.332121 173.93875 
z
" clip-path="url(#pb34d963a69)" style="fill: #1f77b4"/>
   </g>
   <g id="patch_59">
    <path d="M 316.065606 173.93875 
L 320.799091 173.93875 
L 320.799091 173.93875 
L 316.065606 173.93875 
z
" clip-path="url(#pb34d963a69)" style="fill: #1f77b4"/>
   </g>
   <g id="patch_60">
    <path d="M 320.799091 173.93875 
L 325.532576 173.93875 
L 325.532576 173.45075 
L 320.799091 173.45075 
z
" clip-path="url(#pb34d963a69)" style="fill: #1f77b4"/>
   </g>
   <g id="patch_61">
    <path d="M 325.532576 173.93875 
L 330.266061 173.93875 
L 330.266061 173.93875 
L 325.532576 173.93875 
z
" clip-path="url(#pb34d963a69)" style="fill: #1f77b4"/>
   </g>
   <g id="patch_62">
    <path d="M 330.266061 173.93875 
L 334.999545 173.93875 
L 334.999545 173.45075 
L 330.266061 173.45075 
z
" clip-path="url(#pb34d963a69)" style="fill: #1f77b4"/>
   </g>
   <g id="matplotlib.axis_1">
    <g id="xtick_1">
     <g id="line2d_1">
      <path d="M 40.079941 173.93875 
L 40.079941 26.88 
" clip-path="url(#pb34d963a69)" style="fill: none; stroke: #b0b0b0; stroke-opacity: 0.2; stroke-width: 0.8; stroke-linecap: square"/>
     </g>
     <g id="line2d_2">
      <defs>
       <path id="m22451b6f21" d="M 0 0 
L 0 3.5 
" style="stroke: #000000; stroke-width: 0.8"/>
      </defs>
      <g>
       <use xlink:href="#m22451b6f21" x="40.079941" y="173.93875" style="stroke: #000000; stroke-width: 0.8"/>
      </g>
     </g>
     <g id="text_1">
      <!-- 0.0 -->
      <g transform="translate(32.128378 188.537188) scale(0.1 -0.1)">
       <defs>
        <path id="DejaVuSans-30" d="M 2034 4250 
Q 1547 4250 1301 3770 
Q 1056 3291 1056 2328 
Q 1056 1369 1301 889 
Q 1547 409 2034 409 
Q 2525 409 2770 889 
Q 3016 1369 3016 2328 
Q 3016 3291 2770 3770 
Q 2525 4250 2034 4250 
z
M 2034 4750 
Q 2819 4750 3233 4129 
Q 3647 3509 3647 2328 
Q 3647 1150 3233 529 
Q 2819 -91 2034 -91 
Q 1250 -91 836 529 
Q 422 1150 422 2328 
Q 422 3509 836 4129 
Q 1250 4750 2034 4750 
z
" transform="scale(0.015625)"/>
        <path id="DejaVuSans-2e" d="M 684 794 
L 1344 794 
L 1344 0 
L 684 0 
L 684 794 
z
" transform="scale(0.015625)"/>
       </defs>
       <use xlink:href="#DejaVuSans-30"/>
       <use xlink:href="#DejaVuSans-2e" transform="translate(63.623047 0)"/>
       <use xlink:href="#DejaVuSans-30" transform="translate(95.410156 0)"/>
      </g>
     </g>
    </g>
    <g id="xtick_2">
     <g id="line2d_3">
      <path d="M 108.567523 173.93875 
L 108.567523 26.88 
" clip-path="url(#pb34d963a69)" style="fill: none; stroke: #b0b0b0; stroke-opacity: 0.2; stroke-width: 0.8; stroke-linecap: square"/>
     </g>
     <g id="line2d_4">
      <g>
       <use xlink:href="#m22451b6f21" x="108.567523" y="173.93875" style="stroke: #000000; stroke-width: 0.8"/>
      </g>
     </g>
     <g id="text_2">
      <!-- 0.1 -->
      <g transform="translate(100.615961 188.537188) scale(0.1 -0.1)">
       <defs>
        <path id="DejaVuSans-31" d="M 794 531 
L 1825 531 
L 1825 4091 
L 703 3866 
L 703 4441 
L 1819 4666 
L 2450 4666 
L 2450 531 
L 3481 531 
L 3481 0 
L 794 0 
L 794 531 
z
" transform="scale(0.015625)"/>
       </defs>
       <use xlink:href="#DejaVuSans-30"/>
       <use xlink:href="#DejaVuSans-2e" transform="translate(63.623047 0)"/>
       <use xlink:href="#DejaVuSans-31" transform="translate(95.410156 0)"/>
      </g>
     </g>
    </g>
    <g id="xtick_3">
     <g id="line2d_5">
      <path d="M 177.055106 173.93875 
L 177.055106 26.88 
" clip-path="url(#pb34d963a69)" style="fill: none; stroke: #b0b0b0; stroke-opacity: 0.2; stroke-width: 0.8; stroke-linecap: square"/>
     </g>
     <g id="line2d_6">
      <g>
       <use xlink:href="#m22451b6f21" x="177.055106" y="173.93875" style="stroke: #000000; stroke-width: 0.8"/>
      </g>
     </g>
     <g id="text_3">
      <!-- 0.2 -->
      <g transform="translate(169.103543 188.537188) scale(0.1 -0.1)">
       <defs>
        <path id="DejaVuSans-32" d="M 1228 531 
L 3431 531 
L 3431 0 
L 469 0 
L 469 531 
Q 828 903 1448 1529 
Q 2069 2156 2228 2338 
Q 2531 2678 2651 2914 
Q 2772 3150 2772 3378 
Q 2772 3750 2511 3984 
Q 2250 4219 1831 4219 
Q 1534 4219 1204 4116 
Q 875 4013 500 3803 
L 500 4441 
Q 881 4594 1212 4672 
Q 1544 4750 1819 4750 
Q 2544 4750 2975 4387 
Q 3406 4025 3406 3419 
Q 3406 3131 3298 2873 
Q 3191 2616 2906 2266 
Q 2828 2175 2409 1742 
Q 1991 1309 1228 531 
z
" transform="scale(0.015625)"/>
       </defs>
       <use xlink:href="#DejaVuSans-30"/>
       <use xlink:href="#DejaVuSans-2e" transform="translate(63.623047 0)"/>
       <use xlink:href="#DejaVuSans-32" transform="translate(95.410156 0)"/>
      </g>
     </g>
    </g>
    <g id="xtick_4">
     <g id="line2d_7">
      <path d="M 245.542688 173.93875 
L 245.542688 26.88 
" clip-path="url(#pb34d963a69)" style="fill: none; stroke: #b0b0b0; stroke-opacity: 0.2; stroke-width: 0.8; stroke-linecap: square"/>
     </g>
     <g id="line2d_8">
      <g>
       <use xlink:href="#m22451b6f21" x="245.542688" y="173.93875" style="stroke: #000000; stroke-width: 0.8"/>
      </g>
     </g>
     <g id="text_4">
      <!-- 0.3 -->
      <g transform="translate(237.591126 188.537188) scale(0.1 -0.1)">
       <defs>
        <path id="DejaVuSans-33" d="M 2597 2516 
Q 3050 2419 3304 2112 
Q 3559 1806 3559 1356 
Q 3559 666 3084 287 
Q 2609 -91 1734 -91 
Q 1441 -91 1130 -33 
Q 819 25 488 141 
L 488 750 
Q 750 597 1062 519 
Q 1375 441 1716 441 
Q 2309 441 2620 675 
Q 2931 909 2931 1356 
Q 2931 1769 2642 2001 
Q 2353 2234 1838 2234 
L 1294 2234 
L 1294 2753 
L 1863 2753 
Q 2328 2753 2575 2939 
Q 2822 3125 2822 3475 
Q 2822 3834 2567 4026 
Q 2313 4219 1838 4219 
Q 1578 4219 1281 4162 
Q 984 4106 628 3988 
L 628 4550 
Q 988 4650 1302 4700 
Q 1616 4750 1894 4750 
Q 2613 4750 3031 4423 
Q 3450 4097 3450 3541 
Q 3450 3153 3228 2886 
Q 3006 2619 2597 2516 
z
" transform="scale(0.015625)"/>
       </defs>
       <use xlink:href="#DejaVuSans-30"/>
       <use xlink:href="#DejaVuSans-2e" transform="translate(63.623047 0)"/>
       <use xlink:href="#DejaVuSans-33" transform="translate(95.410156 0)"/>
      </g>
     </g>
    </g>
    <g id="xtick_5">
     <g id="line2d_9">
      <path d="M 314.030271 173.93875 
L 314.030271 26.88 
" clip-path="url(#pb34d963a69)" style="fill: none; stroke: #b0b0b0; stroke-opacity: 0.2; stroke-width: 0.8; stroke-linecap: square"/>
     </g>
     <g id="line2d_10">
      <g>
       <use xlink:href="#m22451b6f21" x="314.030271" y="173.93875" style="stroke: #000000; stroke-width: 0.8"/>
      </g>
     </g>
     <g id="text_5">
      <!-- 0.4 -->
      <g transform="translate(306.078708 188.537188) scale(0.1 -0.1)">
       <defs>
        <path id="DejaVuSans-34" d="M 2419 4116 
L 825 1625 
L 2419 1625 
L 2419 4116 
z
M 2253 4666 
L 3047 4666 
L 3047 1625 
L 3713 1625 
L 3713 1100 
L 3047 1100 
L 3047 0 
L 2419 0 
L 2419 1100 
L 313 1100 
L 313 1709 
L 2253 4666 
z
" transform="scale(0.015625)"/>
       </defs>
       <use xlink:href="#DejaVuSans-30"/>
       <use xlink:href="#DejaVuSans-2e" transform="translate(63.623047 0)"/>
       <use xlink:href="#DejaVuSans-34" transform="translate(95.410156 0)"/>
      </g>
     </g>
    </g>
    <g id="text_6">
     <!-- cyc_sim per-sample -->
     <g transform="translate(143.61375 202.215313) scale(0.1 -0.1)">
      <defs>
       <path id="DejaVuSans-63" d="M 3122 3366 
L 3122 2828 
Q 2878 2963 2633 3030 
Q 2388 3097 2138 3097 
Q 1578 3097 1268 2742 
Q 959 2388 959 1747 
Q 959 1106 1268 751 
Q 1578 397 2138 397 
Q 2388 397 2633 464 
Q 2878 531 3122 666 
L 3122 134 
Q 2881 22 2623 -34 
Q 2366 -91 2075 -91 
Q 1284 -91 818 406 
Q 353 903 353 1747 
Q 353 2603 823 3093 
Q 1294 3584 2113 3584 
Q 2378 3584 2631 3529 
Q 2884 3475 3122 3366 
z
" transform="scale(0.015625)"/>
       <path id="DejaVuSans-79" d="M 2059 -325 
Q 1816 -950 1584 -1140 
Q 1353 -1331 966 -1331 
L 506 -1331 
L 506 -850 
L 844 -850 
Q 1081 -850 1212 -737 
Q 1344 -625 1503 -206 
L 1606 56 
L 191 3500 
L 800 3500 
L 1894 763 
L 2988 3500 
L 3597 3500 
L 2059 -325 
z
" transform="scale(0.015625)"/>
       <path id="DejaVuSans-5f" d="M 3263 -1063 
L 3263 -1509 
L -63 -1509 
L -63 -1063 
L 3263 -1063 
z
" transform="scale(0.015625)"/>
       <path id="DejaVuSans-73" d="M 2834 3397 
L 2834 2853 
Q 2591 2978 2328 3040 
Q 2066 3103 1784 3103 
Q 1356 3103 1142 2972 
Q 928 2841 928 2578 
Q 928 2378 1081 2264 
Q 1234 2150 1697 2047 
L 1894 2003 
Q 2506 1872 2764 1633 
Q 3022 1394 3022 966 
Q 3022 478 2636 193 
Q 2250 -91 1575 -91 
Q 1294 -91 989 -36 
Q 684 19 347 128 
L 347 722 
Q 666 556 975 473 
Q 1284 391 1588 391 
Q 1994 391 2212 530 
Q 2431 669 2431 922 
Q 2431 1156 2273 1281 
Q 2116 1406 1581 1522 
L 1381 1569 
Q 847 1681 609 1914 
Q 372 2147 372 2553 
Q 372 3047 722 3315 
Q 1072 3584 1716 3584 
Q 2034 3584 2315 3537 
Q 2597 3491 2834 3397 
z
" transform="scale(0.015625)"/>
       <path id="DejaVuSans-69" d="M 603 3500 
L 1178 3500 
L 1178 0 
L 603 0 
L 603 3500 
z
M 603 4863 
L 1178 4863 
L 1178 4134 
L 603 4134 
L 603 4863 
z
" transform="scale(0.015625)"/>
       <path id="DejaVuSans-6d" d="M 3328 2828 
Q 3544 3216 3844 3400 
Q 4144 3584 4550 3584 
Q 5097 3584 5394 3201 
Q 5691 2819 5691 2113 
L 5691 0 
L 5113 0 
L 5113 2094 
Q 5113 2597 4934 2840 
Q 4756 3084 4391 3084 
Q 3944 3084 3684 2787 
Q 3425 2491 3425 1978 
L 3425 0 
L 2847 0 
L 2847 2094 
Q 2847 2600 2669 2842 
Q 2491 3084 2119 3084 
Q 1678 3084 1418 2786 
Q 1159 2488 1159 1978 
L 1159 0 
L 581 0 
L 581 3500 
L 1159 3500 
L 1159 2956 
Q 1356 3278 1631 3431 
Q 1906 3584 2284 3584 
Q 2666 3584 2933 3390 
Q 3200 3197 3328 2828 
z
" transform="scale(0.015625)"/>
       <path id="DejaVuSans-20" transform="scale(0.015625)"/>
       <path id="DejaVuSans-70" d="M 1159 525 
L 1159 -1331 
L 581 -1331 
L 581 3500 
L 1159 3500 
L 1159 2969 
Q 1341 3281 1617 3432 
Q 1894 3584 2278 3584 
Q 2916 3584 3314 3078 
Q 3713 2572 3713 1747 
Q 3713 922 3314 415 
Q 2916 -91 2278 -91 
Q 1894 -91 1617 61 
Q 1341 213 1159 525 
z
M 3116 1747 
Q 3116 2381 2855 2742 
Q 2594 3103 2138 3103 
Q 1681 3103 1420 2742 
Q 1159 2381 1159 1747 
Q 1159 1113 1420 752 
Q 1681 391 2138 391 
Q 2594 391 2855 752 
Q 3116 1113 3116 1747 
z
" transform="scale(0.015625)"/>
       <path id="DejaVuSans-65" d="M 3597 1894 
L 3597 1613 
L 953 1613 
Q 991 1019 1311 708 
Q 1631 397 2203 397 
Q 2534 397 2845 478 
Q 3156 559 3463 722 
L 3463 178 
Q 3153 47 2828 -22 
Q 2503 -91 2169 -91 
Q 1331 -91 842 396 
Q 353 884 353 1716 
Q 353 2575 817 3079 
Q 1281 3584 2069 3584 
Q 2775 3584 3186 3129 
Q 3597 2675 3597 1894 
z
M 3022 2063 
Q 3016 2534 2758 2815 
Q 2500 3097 2075 3097 
Q 1594 3097 1305 2825 
Q 1016 2553 972 2059 
L 3022 2063 
z
" transform="scale(0.015625)"/>
       <path id="DejaVuSans-72" d="M 2631 2963 
Q 2534 3019 2420 3045 
Q 2306 3072 2169 3072 
Q 1681 3072 1420 2755 
Q 1159 2438 1159 1844 
L 1159 0 
L 581 0 
L 581 3500 
L 1159 3500 
L 1159 2956 
Q 1341 3275 1631 3429 
Q 1922 3584 2338 3584 
Q 2397 3584 2469 3576 
Q 2541 3569 2628 3553 
L 2631 2963 
z
" transform="scale(0.015625)"/>
       <path id="DejaVuSans-2d" d="M 313 2009 
L 1997 2009 
L 1997 1497 
L 313 1497 
L 313 2009 
z
" transform="scale(0.015625)"/>
       <path id="DejaVuSans-61" d="M 2194 1759 
Q 1497 1759 1228 1600 
Q 959 1441 959 1056 
Q 959 750 1161 570 
Q 1363 391 1709 391 
Q 2188 391 2477 730 
Q 2766 1069 2766 1631 
L 2766 1759 
L 2194 1759 
z
M 3341 1997 
L 3341 0 
L 2766 0 
L 2766 531 
Q 2569 213 2275 61 
Q 1981 -91 1556 -91 
Q 1019 -91 701 211 
Q 384 513 384 1019 
Q 384 1609 779 1909 
Q 1175 2209 1959 2209 
L 2766 2209 
L 2766 2266 
Q 2766 2663 2505 2880 
Q 2244 3097 1772 3097 
Q 1472 3097 1187 3025 
Q 903 2953 641 2809 
L 641 3341 
Q 956 3463 1253 3523 
Q 1550 3584 1831 3584 
Q 2591 3584 2966 3190 
Q 3341 2797 3341 1997 
z
" transform="scale(0.015625)"/>
       <path id="DejaVuSans-6c" d="M 603 4863 
L 1178 4863 
L 1178 0 
L 603 0 
L 603 4863 
z
" transform="scale(0.015625)"/>
      </defs>
      <use xlink:href="#DejaVuSans-63"/>
      <use xlink:href="#DejaVuSans-79" transform="translate(54.980469 0)"/>
      <use xlink:href="#DejaVuSans-63" transform="translate(114.160156 0)"/>
      <use xlink:href="#DejaVuSans-5f" transform="translate(169.140625 0)"/>
      <use xlink:href="#DejaVuSans-73" transform="translate(219.140625 0)"/>
      <use xlink:href="#DejaVuSans-69" transform="translate(271.240234 0)"/>
      <use xlink:href="#DejaVuSans-6d" transform="translate(299.023438 0)"/>
      <use xlink:href="#DejaVuSans-20" transform="translate(396.435547 0)"/>
      <use xlink:href="#DejaVuSans-70" transform="translate(428.222656 0)"/>
      <use xlink:href="#DejaVuSans-65" transform="translate(491.699219 0)"/>
      <use xlink:href="#DejaVuSans-72" transform="translate(553.222656 0)"/>
      <use xlink:href="#DejaVuSans-2d" transform="translate(587.960938 0)"/>
      <use xlink:href="#DejaVuSans-73" transform="translate(624.044922 0)"/>
      <use xlink:href="#DejaVuSans-61" transform="translate(676.144531 0)"/>
      <use xlink:href="#DejaVuSans-6d" transform="translate(737.423828 0)"/>
      <use xlink:href="#DejaVuSans-70" transform="translate(834.835938 0)"/>
      <use xlink:href="#DejaVuSans-6c" transform="translate(898.3125 0)"/>
      <use xlink:href="#DejaVuSans-65" transform="translate(926.095703 0)"/>
     </g>
    </g>
   </g>
   <g id="matplotlib.axis_2">
    <g id="ytick_1">
     <g id="line2d_11">
      <path d="M 36.79 173.93875 
L 349.2 173.93875 
" clip-path="url(#pb34d963a69)" style="fill: none; stroke: #b0b0b0; stroke-opacity: 0.2; stroke-width: 0.8; stroke-linecap: square"/>
     </g>
     <g id="line2d_12">
      <defs>
       <path id="md2e498e6c2" d="M 0 0 
L -3.5 0 
" style="stroke: #000000; stroke-width: 0.8"/>
      </defs>
      <g>
       <use xlink:href="#md2e498e6c2" x="36.79" y="173.93875" style="stroke: #000000; stroke-width: 0.8"/>
      </g>
     </g>
     <g id="text_7">
      <!-- 0 -->
      <g transform="translate(23.4275 177.737969) scale(0.1 -0.1)">
       <use xlink:href="#DejaVuSans-30"/>
      </g>
     </g>
    </g>
    <g id="ytick_2">
     <g id="line2d_13">
      <path d="M 36.79 149.538758 
L 349.2 149.538758 
" clip-path="url(#pb34d963a69)" style="fill: none; stroke: #b0b0b0; stroke-opacity: 0.2; stroke-width: 0.8; stroke-linecap: square"/>
     </g>
     <g id="line2d_14">
      <g>
       <use xlink:href="#md2e498e6c2" x="36.79" y="149.538758" style="stroke: #000000; stroke-width: 0.8"/>
      </g>
     </g>
     <g id="text_8">
      <!-- 50 -->
      <g transform="translate(17.065 153.337977) scale(0.1 -0.1)">
       <defs>
        <path id="DejaVuSans-35" d="M 691 4666 
L 3169 4666 
L 3169 4134 
L 1269 4134 
L 1269 2991 
Q 1406 3038 1543 3061 
Q 1681 3084 1819 3084 
Q 2600 3084 3056 2656 
Q 3513 2228 3513 1497 
Q 3513 744 3044 326 
Q 2575 -91 1722 -91 
Q 1428 -91 1123 -41 
Q 819 9 494 109 
L 494 744 
Q 775 591 1075 516 
Q 1375 441 1709 441 
Q 2250 441 2565 725 
Q 2881 1009 2881 1497 
Q 2881 1984 2565 2268 
Q 2250 2553 1709 2553 
Q 1456 2553 1204 2497 
Q 953 2441 691 2322 
L 691 4666 
z
" transform="scale(0.015625)"/>
       </defs>
       <use xlink:href="#DejaVuSans-35"/>
       <use xlink:href="#DejaVuSans-30" transform="translate(63.623047 0)"/>
      </g>
     </g>
    </g>
    <g id="ytick_3">
     <g id="line2d_15">
      <path d="M 36.79 125.138767 
L 349.2 125.138767 
" clip-path="url(#pb34d963a69)" style="fill: none; stroke: #b0b0b0; stroke-opacity: 0.2; stroke-width: 0.8; stroke-linecap: square"/>
     </g>
     <g id="line2d_16">
      <g>
       <use xlink:href="#md2e498e6c2" x="36.79" y="125.138767" style="stroke: #000000; stroke-width: 0.8"/>
      </g>
     </g>
     <g id="text_9">
      <!-- 100 -->
      <g transform="translate(10.7025 128.937985) scale(0.1 -0.1)">
       <use xlink:href="#DejaVuSans-31"/>
       <use xlink:href="#DejaVuSans-30" transform="translate(63.623047 0)"/>
       <use xlink:href="#DejaVuSans-30" transform="translate(127.246094 0)"/>
      </g>
     </g>
    </g>
    <g id="ytick_4">
     <g id="line2d_17">
      <path d="M 36.79 100.738775 
L 349.2 100.738775 
" clip-path="url(#pb34d963a69)" style="fill: none; stroke: #b0b0b0; stroke-opacity: 0.2; stroke-width: 0.8; stroke-linecap: square"/>
     </g>
     <g id="line2d_18">
      <g>
       <use xlink:href="#md2e498e6c2" x="36.79" y="100.738775" style="stroke: #000000; stroke-width: 0.8"/>
      </g>
     </g>
     <g id="text_10">
      <!-- 150 -->
      <g transform="translate(10.7025 104.537994) scale(0.1 -0.1)">
       <use xlink:href="#DejaVuSans-31"/>
       <use xlink:href="#DejaVuSans-35" transform="translate(63.623047 0)"/>
       <use xlink:href="#DejaVuSans-30" transform="translate(127.246094 0)"/>
      </g>
     </g>
    </g>
    <g id="ytick_5">
     <g id="line2d_19">
      <path d="M 36.79 76.338783 
L 349.2 76.338783 
" clip-path="url(#pb34d963a69)" style="fill: none; stroke: #b0b0b0; stroke-opacity: 0.2; stroke-width: 0.8; stroke-linecap: square"/>
     </g>
     <g id="line2d_20">
      <g>
       <use xlink:href="#md2e498e6c2" x="36.79" y="76.338783" style="stroke: #000000; stroke-width: 0.8"/>
      </g>
     </g>
     <g id="text_11">
      <!-- 200 -->
      <g transform="translate(10.7025 80.138002) scale(0.1 -0.1)">
       <use xlink:href="#DejaVuSans-32"/>
       <use xlink:href="#DejaVuSans-30" transform="translate(63.623047 0)"/>
       <use xlink:href="#DejaVuSans-30" transform="translate(127.246094 0)"/>
      </g>
     </g>
    </g>
    <g id="ytick_6">
     <g id="line2d_21">
      <path d="M 36.79 51.938791 
L 349.2 51.938791 
" clip-path="url(#pb34d963a69)" style="fill: none; stroke: #b0b0b0; stroke-opacity: 0.2; stroke-width: 0.8; stroke-linecap: square"/>
     </g>
     <g id="line2d_22">
      <g>
       <use xlink:href="#md2e498e6c2" x="36.79" y="51.938791" style="stroke: #000000; stroke-width: 0.8"/>
      </g>
     </g>
     <g id="text_12">
      <!-- 250 -->
      <g transform="translate(10.7025 55.73801) scale(0.1 -0.1)">
       <use xlink:href="#DejaVuSans-32"/>
       <use xlink:href="#DejaVuSans-35" transform="translate(63.623047 0)"/>
       <use xlink:href="#DejaVuSans-30" transform="translate(127.246094 0)"/>
      </g>
     </g>
    </g>
    <g id="ytick_7">
     <g id="line2d_23">
      <path d="M 36.79 27.5388 
L 349.2 27.5388 
" clip-path="url(#pb34d963a69)" style="fill: none; stroke: #b0b0b0; stroke-opacity: 0.2; stroke-width: 0.8; stroke-linecap: square"/>
     </g>
     <g id="line2d_24">
      <g>
       <use xlink:href="#md2e498e6c2" x="36.79" y="27.5388" style="stroke: #000000; stroke-width: 0.8"/>
      </g>
     </g>
     <g id="text_13">
      <!-- 300 -->
      <g transform="translate(10.7025 31.338019) scale(0.1 -0.1)">
       <use xlink:href="#DejaVuSans-33"/>
       <use xlink:href="#DejaVuSans-30" transform="translate(63.623047 0)"/>
       <use xlink:href="#DejaVuSans-30" transform="translate(127.246094 0)"/>
      </g>
     </g>
    </g>
   </g>
   <g id="patch_63">
    <path d="M 36.79 173.93875 
L 36.79 26.88 
" style="fill: none; stroke: #000000; stroke-width: 0.8; stroke-linejoin: miter; stroke-linecap: square"/>
   </g>
   <g id="patch_64">
    <path d="M 349.2 173.93875 
L 349.2 26.88 
" style="fill: none; stroke: #000000; stroke-width: 0.8; stroke-linejoin: miter; stroke-linecap: square"/>
   </g>
   <g id="patch_65">
    <path d="M 36.79 173.93875 
L 349.2 173.93875 
" style="fill: none; stroke: #000000; stroke-width: 0.8; stroke-linejoin: miter; stroke-linecap: square"/>
   </g>
   <g id="patch_66">
    <path d="M 36.79 26.88 
L 349.2 26.88 
" style="fill: none; stroke: #000000; stroke-width: 0.8; stroke-linejoin: miter; stroke-linecap: square"/>
   </g>
   <g id="text_14">
    <!-- cyc_sim per-sample -->
    <g transform="translate(133.7375 20.88) scale(0.12 -0.12)">
     <use xlink:href="#DejaVuSans-63"/>
     <use xlink:href="#DejaVuSans-79" transform="translate(54.980469 0)"/>
     <use xlink:href="#DejaVuSans-63" transform="translate(114.160156 0)"/>
     <use xlink:href="#DejaVuSans-5f" transform="translate(169.140625 0)"/>
     <use xlink:href="#DejaVuSans-73" transform="translate(219.140625 0)"/>
     <use xlink:href="#DejaVuSans-69" transform="translate(271.240234 0)"/>
     <use xlink:href="#DejaVuSans-6d" transform="translate(299.023438 0)"/>
     <use xlink:href="#DejaVuSans-20" transform="translate(396.435547 0)"/>
     <use xlink:href="#DejaVuSans-70" transform="translate(428.222656 0)"/>
     <use xlink:href="#DejaVuSans-65" transform="translate(491.699219 0)"/>
     <use xlink:href="#DejaVuSans-72" transform="translate(553.222656 0)"/>
     <use xlink:href="#DejaVuSans-2d" transform="translate(587.960938 0)"/>
     <use xlink:href="#DejaVuSans-73" transform="translate(624.044922 0)"/>
     <use xlink:href="#DejaVuSans-61" transform="translate(676.144531 0)"/>
     <use xlink:href="#DejaVuSans-6d" transform="translate(737.423828 0)"/>
     <use xlink:href="#DejaVuSans-70" transform="translate(834.835938 0)"/>
     <use xlink:href="#DejaVuSans-6c" transform="translate(898.3125 0)"/>
     <use xlink:href="#DejaVuSans-65" transform="translate(926.095703 0)"/>
    </g>
   </g>
  </g>
 </g>
 <defs>
  <clipPath id="pb34d963a69">
   <rect x="36.79" y="26.88" width="312.41" height="147.05875"/>
  </clipPath>
 </defs>
</svg>
